<?xml version="1.0" encoding="UTF-8"?>
<svg id="Layer_2" data-name="Layer 2" xmlns="http://www.w3.org/2000/svg" viewBox="0 0 50.99 55.03">
  <defs>
    <style>
      .cls-1 {
        fill: #e6d0a5;
        stroke-width: 0px;
      }

      .cls-2 {
        fill: #274542;
        stroke: #e6d0a5;
        stroke-miterlimit: 10;
        stroke-width: .25px;
      }
    </style>
  </defs>
  <g id="Layer_1-2" data-name="Layer 1">
    <g>
      <path class="cls-2" d="M39.76,40.14c-4.02,4.27-8.78,6.41-14.25,6.41-4.9,0-9.26-1.73-13.1-5.18-3.98-4-5.96-8.56-5.96-13.71v-.31c0-4.7,1.7-8.98,5.1-12.82,3.96-4.05,8.64-6.06,14.02-6.06,4.64,0,8.85,1.61,12.62,4.84,1.91,1.87,3,3.16,3.26,3.87,2.07,3.15,3.1,6.59,3.1,10.33,0,4.64-1.6,8.86-4.79,12.64Z"/>
      <g>
        <path class="cls-1" d="M3.67,39.29c-.47.33-.92.49-1.37.49h-.25c-.98,0-1.65-.5-1.98-1.52,0-.02-.02-.13-.06-.31.12-1.05.59-1.58,1.37-1.58h.06c.7.12,1.06.44,1.06.97v.06c-.05.57-.33.86-.86.86-.41-.1-.61-.3-.61-.61v-.05c0-.14.08-.32.24-.51-.37.14-.55.42-.55.82,0,.64.45,1.03,1.37,1.16h.11c.99,0,1.59-.63,1.78-1.87v-.31c0-.86-.53-1.52-1.58-1.98l-.11-.17v-2.6c-.42,0-.7-.35-.86-1.06v-.35c0-.45.32-.94.97-1.48-.25.06-.49.1-.72.1-.2-.06-.31-.2-.31-.41,0-.1.16-.33.47-.72-.88-.16-1.33-.39-1.33-.72,0-.3.44-.54,1.33-.69-.31-.37-.47-.62-.47-.78,0-.21.14-.33.41-.36.14,0,.36.04.62.11-.64-.54-.97-1.04-.97-1.48v-.36c.16-.72.44-1.07.86-1.07v-2.59s.37-.3,1.12-.76c.37-.5.56-.94.56-1.33v-.36c-.19-1.27-.79-1.89-1.78-1.89h-.05c-.64,0-1.11.27-1.37.82l-.06.35c0,.41.18.68.55.82v-.06c-.1,0-.18-.14-.24-.45v-.06c0-.39.25-.6.75-.6.39,0,.63.29.72.86v.06c0,.5-.36.84-1.06.97-.68,0-1.15-.37-1.37-1.12l-.06-.45c0-.86.55-1.46,1.64-1.8.18-.04.36-.05.51-.05h.14c1.06,0,1.83.64,2.29,1.95.07.13.11.32.11.56v.45c0,.93-.53,1.73-1.58,2.39h-.11v2.2c.38.24.58.42.61.55.07.13.11.27.11.43-.05.54-.31.8-.78.8h-.05c-.19,0-.32-.08-.41-.25v-.26s.07-.12.2-.2h.31v-.14c-.06-.13-.18-.2-.35-.2-.35.06-.51.23-.51.51v.3c0,.27.44.73,1.31,1.37.35.45.51.82.51,1.13l-.17.75c.08.13.13.35.17.66,0,.61-.45,1.21-1.37,1.79-.3.27-.45.54-.45.81v.2c.06.33.23.51.51.51.17,0,.29-.07.35-.2v-.14h-.31s-.12-.08-.2-.23v-.24c.08-.17.21-.25.41-.25h.11c.41,0,.64.26.72.8,0,.44-.24.75-.72.92v2.23c.27.04.66.33,1.12.88.37.54.56,1.04.56,1.52v.47c0,.7-.33,1.37-1.03,1.99Z"/>
        <path class="cls-1" d="M24.7,51.97c.07.25.11.49.11.75,0,1.03-.56,1.78-1.68,2.26-.18.04-.33.05-.45.05h-.06c-.76,0-1.31-.41-1.62-1.22-.04-.14-.05-.26-.05-.37,0-.54.32-.93.96-1.17h.31c.55.16.82.43.82.82-.07.51-.3.76-.67.76-.27,0-.51-.17-.72-.51v.06c.12.61.43.91.92.91h.16c.58,0,1.03-.42,1.33-1.28.04-.13.05-.26.05-.41,0-.92-.58-1.59-1.77-1.99h-.51c-.44,0-.96.2-1.54.62h-.04c-1.48-.85-2.27-1.28-2.35-1.28,0,.12-.24.23-.72.31-.98,0-1.54-.64-1.68-1.95h-.05c0,.43-.19.73-.56.88-.21,0-.41-.3-.56-.88h-.06c-.41.58-.76.88-1.06.88-.23,0-.35-.12-.35-.37v-.25c0-.35.08-.67.24-.98h-.04c-.25.07-.51.12-.76.12-.18-.06-.26-.17-.26-.36v-.16s.16-.24.45-.61c-.36.18-.74.29-1.11.31-1.01-.13-1.53-.61-1.53-1.43v-.25c-1.53-.81-2.3-1.29-2.3-1.43.04-.24.06-.44.06-.61,0-1.03-.6-1.72-1.78-2.09-.04,0-.18-.01-.41-.05-.92,0-1.52.48-1.79,1.43l-.04.29c.07.76.44,1.13,1.11,1.13.04,0,.17-.05.41-.17v-.05h-.06l-.25.05c-.37-.07-.55-.25-.55-.55v-.19c0-.35.24-.55.72-.63h.14c.43,0,.69.29.8.86v.26c0,.61-.42.98-1.25,1.12-1.03,0-1.62-.62-1.78-1.84,0-1.15.66-1.95,1.97-2.38.16,0,.35-.02.57-.06,1.19,0,2.09.63,2.7,1.89.13.29.2.66.2,1.12v.25l1.89,1.01c.25-.17.48-.24.66-.24h.05c.58.11.87.33.87.69v.21c-.08.37-.23.55-.47.55s-.35-.11-.35-.35v-.17c.06-.08.1-.13.1-.14,0-.07-.04-.11-.1-.11h-.17c-.17.1-.25.24-.25.42v.1c0,.33.25.54.76.62.29,0,.76-.16,1.43-.45.23-.07.43-.11.61-.11.55,0,.99.21,1.34.66.43,0,.84.27,1.21.82.16.24.3.86.42,1.83.23.41.48.61.75.61h.06c.33-.05.51-.2.51-.45v-.1s-.05-.11-.16-.17h-.05c0,.21-.12.31-.37.31-.23,0-.35-.12-.35-.36,0-.38.26-.61.8-.67.56.17.84.44.84.82v.35c.11.14.73.51,1.89,1.12.55-.32,1.04-.49,1.46-.49h.37c1.19,0,2.08.67,2.64,2.03Z"/>
        <path class="cls-1" d="M2.95,12.8c-.02-.07-.05-.26-.08-.57.14-1.22.75-1.83,1.83-1.83.81.17,1.21.55,1.21,1.13v.24c-.11.58-.37.87-.8.87h-.14c-.48-.07-.72-.27-.72-.62v-.2c0-.3.2-.49.6-.55h.06c.06.02.11.04.14.04-.05-.13-.2-.19-.45-.19-.56,0-.9.37-1,1.11,0,.79.42,1.33,1.25,1.64.06.04.24.07.57.11,1.03,0,1.73-.58,2.13-1.74.04-.18.06-.37.06-.55l-.06-.45c0-.16.78-.62,2.3-1.43v-.25c0-.69.38-1.15,1.12-1.38l.45-.05c.33.02.69.13,1.06.31v-.06c-.16-.1-.31-.27-.45-.55v-.17c0-.23.13-.35.41-.35.11,0,.32.04.66.1-.16-.3-.24-.61-.24-.96v-.25c0-.25.12-.37.35-.37.25,0,.6.27,1.06.82v.04h.06c.16-.57.35-.86.56-.86.37.16.56.44.56.86h.05c.14-1.28.7-1.92,1.68-1.92.2,0,.47.1.81.3,1.27-.75,2.03-1.17,2.29-1.27.57.39,1.09.6,1.54.6h.25c.97,0,1.65-.58,2.03-1.78v-.25c0-.8-.42-1.34-1.28-1.64h-.25c-.62.13-.92.43-.92.92v.06c.2-.35.44-.51.72-.51.37,0,.6.25.67.76,0,.43-.29.69-.87.81h-.14c-.58,0-.93-.41-1.07-1.22v-.05c0-.61.43-1.09,1.27-1.43.14-.04.27-.06.41-.06h.06c.94,0,1.64.61,2.09,1.8.04.27.05.5.05.66,0,.67-.33,1.34-1.03,1.98-.56.44-1.13.66-1.72.66h-.37c-.42,0-.91-.17-1.46-.51-1.16.62-1.78,1-1.89,1.13v.35c0,.45-.33.73-.98.84-.44-.13-.66-.36-.66-.68,0-.24.12-.35.35-.35.25,0,.37.1.37.31h.05s.1-.06.16-.17v-.1c0-.25-.18-.41-.51-.45h-.06c-.5,0-.79.44-.86,1.31,0,.93-.42,1.56-1.27,1.89-.19,0-.38.14-.56.41-.37.21-.72.31-1.03.31-.36,0-.93-.19-1.73-.56h-.31c-.51.07-.76.27-.76.62v.1c0,.18.08.31.25.39h.17c.06,0,.1-.02.1-.08l-.1-.17v-.14c0-.24.13-.36.41-.36.26.14.41.32.41.55v.2c0,.37-.29.61-.87.72h-.05c-.14,0-.38-.08-.72-.25-1.15.68-1.76,1.03-1.83,1.03v.25c0,1.37-.68,2.33-2.04,2.87-.42.1-.72.14-.92.14-1.17,0-1.97-.63-2.4-1.89Z"/>
        <path class="cls-1" d="M26.34,3.12c-.06-.23-.1-.43-.1-.62v-.2c0-1.07.57-1.81,1.72-2.23.06-.04.16-.06.26-.06h.2c.8,0,1.35.45,1.62,1.34v.36c0,.48-.3.82-.91,1.06h-.26c-.57-.12-.86-.36-.86-.75v-.11c.06-.48.26-.72.61-.72h.11c.35,0,.54.2.55.62h.05v-.42c-.19-.44-.5-.67-.91-.67h-.1c-.67,0-1.13.5-1.37,1.49v.35c0,.67.47,1.25,1.41,1.74.25.06.45.08.62.08h.26c.44,0,.92-.2,1.47-.6h.11l2.23,1.27c.3-.2.58-.3.86-.3.72,0,1.23.44,1.54,1.31.04.35.08.51.14.51,0-.38.18-.62.51-.7h.16c.14,0,.29.26.42.8.53-.57.91-.86,1.16-.86s.36.13.36.41v.05c0,.36-.08.73-.25,1.12h.05c.26-.06.5-.1.72-.1.13.05.24.14.3.26v.08c0,.17-.16.42-.47.78.39-.2.78-.31,1.15-.31.86,0,1.37.48,1.52,1.43l-.06.19c1.28.73,2.02,1.17,2.24,1.34.04.06.05.12.05.2v.61c0,.97.58,1.65,1.74,2.03l.45.06c1.19-.17,1.78-.73,1.78-1.68v-.2c0-.54-.33-.86-1.03-.97h-.04c-.3.07-.45.16-.45.25.11-.06.2-.1.29-.1.36,0,.56.23.63.67v.05c-.12.44-.33.66-.67.66h-.17c-.49,0-.8-.32-.91-.97,0-.73.44-1.16,1.31-1.28.92,0,1.5.53,1.74,1.59v.3c0,1.12-.64,1.9-1.95,2.34-.13,0-.31.02-.55.06-1.27,0-2.2-.68-2.79-2.04-.08-.31-.12-.57-.12-.76v-.35c-.11-.12-.75-.51-1.92-1.17-.16.19-.38.29-.66.29-.61-.11-.92-.38-.92-.8.07-.44.26-.67.55-.67.14.04.25.13.31.26v.1l-.11.36.11.04h.1c.2-.11.31-.27.31-.49-.11-.42-.39-.62-.86-.62-.1,0-.68.19-1.74.56h-.29c-.44,0-.87-.21-1.29-.66-1.01-.2-1.52-.97-1.52-2.29-.13-.64-.44-.97-.92-.97-.29,0-.45.18-.51.55l.2.17h.06c0-.21.11-.31.35-.31h.11c.17.1.25.21.25.35,0,.37-.27.6-.82.68-.43,0-.73-.33-.86-.98l.06-.25c-1.23-.73-1.89-1.09-1.99-1.09-.42.35-.91.51-1.47.51h-.26c-1.19,0-2.08-.66-2.65-1.98Z"/>
        <path class="cls-1" d="M48.08,42.24c.05.17.06.35.06.51v.14c-.16,1.16-.75,1.73-1.78,1.73-.64,0-1.07-.38-1.28-1.12v-.26c.16-.57.47-.86.91-.86h.17c.44.12.67.33.67.67v.05c-.07.44-.27.66-.63.66-.08,0-.18-.02-.29-.08v.04c.18.14.33.21.45.21h.04c.69-.11,1.03-.43,1.03-.97v-.2c0-.96-.58-1.52-1.78-1.68-1,0-1.71.54-2.14,1.62-.04.19-.06.35-.06.47v.6c0,.23-.25.43-.75.63-.01.04-.53.33-1.54.91l.06.26c-.16.92-.68,1.37-1.58,1.37-.32,0-.68-.11-1.09-.31v.06c.31.27.47.51.47.7v.1c-.08.17-.23.26-.41.26-.1,0-.32-.05-.66-.12.17.41.25.79.25,1.13v.05c0,.27-.12.42-.36.42-.25,0-.63-.3-1.16-.88,0,.43-.19.73-.57.88-.21,0-.38-.26-.51-.78-.04,0-.12.29-.25.86-.41.66-.86.98-1.37.98-.33,0-.64-.11-.92-.31l-2.23,1.28c-.1,0-.32-.12-.67-.37-.3-.17-.61-.25-.91-.25h-.26c-.94,0-1.61.56-2.03,1.68v.41c0,.73.41,1.27,1.21,1.59h.26c.61-.11.91-.38.91-.82v-.25h-.05c-.01.42-.2.62-.55.62h-.11c-.35,0-.55-.24-.61-.72v-.11c0-.39.29-.64.86-.76h.2c.44,0,.76.33.97,1.03v.39c-.27.9-.82,1.34-1.62,1.34h-.2c-.44-.04-.9-.27-1.37-.72-.41-.49-.61-1.03-.61-1.59v-.2c0-1.1.7-1.95,2.13-2.54l.62-.04h.26c.47,0,.99.17,1.58.49,1.07-.59,1.7-.96,1.89-1.12l-.06-.25c0-.5.35-.81,1.03-.92.33,0,.55.24.66.72-.05.14-.13.25-.25.31h-.26c-.13-.07-.19-.18-.19-.31h-.06s-.12.07-.2.2c.07.35.25.51.51.51.67,0,1-.63,1-1.89.32-.88.76-1.33,1.34-1.33.5-.43.88-.66,1.12-.66.04-.04.16-.05.35-.05.3,0,.88.18,1.78.56h.26c.51-.08.76-.32.76-.72,0-.13-.11-.27-.31-.42h-.1c-.07.01-.11.05-.11.11.07.11.11.21.11.31v.1c-.08.17-.21.25-.39.25-.31-.14-.47-.38-.47-.7.16-.5.45-.75.86-.75h.06c.27,0,.5.1.66.29,1.17-.66,1.81-1.05,1.92-1.17v-.35c0-1.25.72-2.15,2.15-2.7l.76-.11c1.19,0,2.01.63,2.44,1.89Z"/>
        <path class="cls-1" d="M49.71,17.88v.06h.06c.33-.14.51-.37.51-.66v-.26c0-.58-.47-.94-1.37-1.07h-.2c-.7,0-1.23.48-1.6,1.42-.06.17-.1.38-.1.67,0,.92.56,1.64,1.7,2.14l.04.37v2.33c.58.18.87.61.87,1.28s-.33,1.18-1.03,1.58v.06c.31-.07.53-.11.67-.11.19,0,.32.12.39.36-.02.18-.18.43-.49.78.92.16,1.37.39,1.37.69v.06c-.32.44-.79.66-1.37.66.3.31.45.56.49.76-.06.24-.2.36-.45.36-.32-.02-.5-.06-.55-.1h-.06v.06c.69.38,1.03.91,1.03,1.58s-.29,1.09-.87,1.25v2.46c0,.25-.25.44-.75.61-.64.51-.98,1.16-.98,1.93s.42,1.38,1.23,1.84c.23.06.37.1.47.1h.2c.91-.13,1.37-.48,1.37-1.06v-.26c0-.29-.18-.51-.51-.66h-.06v.05c.14,0,.25.18.31.51-.12.41-.35.61-.66.61-.44,0-.72-.24-.82-.72v-.31c.12-.57.51-.86,1.17-.86.86.17,1.28.67,1.28,1.48v.26c0,.76-.6,1.33-1.79,1.66h-.45c-1.1,0-1.89-.67-2.35-2.03-.06-.29-.08-.53-.08-.72,0-1.1.57-1.99,1.72-2.69v-2.15c-.47-.17-.69-.43-.69-.76v-.3c0-.39.26-.61.8-.66.27.02.41.16.41.41,0,.2-.12.31-.35.31h-.17v.2c.04.1.14.14.31.14.38-.05.57-.24.57-.57v-.08c0-.44-.43-.92-1.29-1.43-.37-.44-.55-.88-.55-1.33,0-.16.05-.36.14-.62-.1-.21-.14-.45-.14-.69,0-.64.5-1.3,1.52-1.95.21-.24.32-.48.32-.72v-.11c-.07-.37-.25-.55-.57-.55-.2.02-.31.07-.31.14v.2h.17c.23,0,.35.12.35.37,0,.23-.19.35-.55.35-.44-.11-.66-.33-.66-.66v-.31c0-.33.23-.58.69-.75v-2.15c-1.15-.68-1.72-1.6-1.72-2.75s.58-2.04,1.77-2.6c.31-.07.53-.11.67-.11h.17c1.06,0,1.75.53,2.08,1.59v.36c0,.81-.42,1.31-1.28,1.48-.66,0-1.05-.3-1.17-.88v-.29c.11-.48.38-.72.82-.72.31,0,.54.2.66.6-.06.35-.17.51-.31.51Z"/>
      </g>
      <g>
        <path class="cls-1" d="M10.43,28.02s-.03.05-.03.06c-.05.35-.11.7-.11,1.05,0,.62-.02,1.23,0,1.85,0,.58.14,1.15.31,1.7.08.25.2.49.36.71.16.22.35.39.62.48.24.08.49.1.75.05.16-.04.3-.12.43-.23.17-.15.32-.32.44-.52.13-.22.25-.44.36-.66.24-.51.47-1.03.71-1.54.18-.39.34-.79.55-1.16.41-.71.9-1.37,1.54-1.89.13-.1.26-.19.4-.28.18-.12.39-.17.61-.2.18-.02.34.02.5.13.28.21.5.45.69.74.18.27.34.56.49.84.13.25.3.47.45.69.11.16.25.28.41.39.25.17.5.34.8.41.05.01.1.03.14.06.16.11.36.12.54.17.05.01.1,0,.14-.05.07-.09.15-.17.21-.26.16-.21.31-.43.48-.63.46-.57.99-1.07,1.54-1.55.34-.23.65-.51,1-.74.37-.24.76-.45,1.13-.69.06-.04.14-.06.2-.1.04-.03.07-.07.06-.13,0-.04-.05-.09-.1-.1-.08,0-.15-.01-.23-.02-1.18-.02-2.37-.04-3.55-.06-.63,0-1.26-.02-1.89-.03-.09,0-.18,0-.26-.02-.06-.01-.12-.04-.17-.07-.1-.06-.14-.16-.1-.26.12-.32.17-.66.29-.98.06-.17.14-.32.23-.47.08-.13.19-.24.32-.31.18-.1.35-.2.53-.29.48-.22.95-.47,1.39-.75.35-.22.7-.45,1.02-.71.13-.11.27-.22.41-.33.34-.28.65-.59.96-.9.1-.1.18-.21.27-.32.32-.41.61-.83.89-1.26.31-.49.61-.98.93-1.47.19-.28.4-.55.62-.81.12-.13.25-.24.4-.34.14-.09.37-.09.5.01.1.08.2.15.27.26.16.26.3.51.39.8.17.56.09,1.18.09,1.77,0,.2-.03.4-.09.59-.05.14-.07.29-.11.44-.02.09-.15.11-.22.04-.02-.03-.05-.06-.06-.09-.02-.05-.03-.1-.03-.15,0-.11-.02-.23-.01-.34.02-.32-.08-.62-.21-.91-.07-.16-.17-.31-.29-.44-.07-.08-.16-.13-.25-.17-.09-.04-.17-.04-.26,0-.12.05-.22.11-.32.2-.17.17-.32.36-.45.56-.2.32-.38.65-.57.97-.27.47-.51.95-.83,1.39-.15.32-.39.59-.58.88-.07.12-.17.22-.26.32-.33.36-.68.71-1.04,1.04-.04.03-.07.07-.09.12-.04.07,0,.17.08.18.1.01.2.02.3.03.65.01,1.31.03,1.96.04.72.01,1.44.02,2.15.03.33,0,.65.02.98.03.88.02,1.76.03,2.64-.03.15-.01.3,0,.45,0,.09,0,.16.1.15.19-.02.17-.05.35-.12.51-.03.07-.07.14-.08.21-.03.23-.15.42-.22.64-.03.09-.1.15-.18.18-.24.08-.46.21-.72.21-.26.1-.53.14-.8.22-.17.05-.33.12-.51.14-.06,0-.13.02-.18.05-.15.07-.31.11-.47.12-.03,0-.05,0-.07.01-.24.12-.51.14-.75.24-.08.03-.16.07-.25.09-.1.02-.19.06-.28.1-.07.03-.14.06-.21.07-.1.02-.19.06-.28.11-.16.1-.36.1-.52.22-.15.03-.28.11-.42.17-.38.17-.97.47-1.27.66-.09.05-.18.09-.27.14-.35.23-.71.44-1.04.69-.35.27-.68.57-1.01.86-.08.07-.15.17-.23.25-.02.03-.03.07-.05.1-.02.05.02.14.08.15.06.01.12.02.19.02.26.03.53.05.79.08.35.04.7.08,1.05.08.77,0,1.54.01,2.31.02.54,0,1.08,0,1.63.01.4,0,.8.04,1.2.1.22.03.45.05.68.06.25.01.5.04.74.12.05.02.1.03.15.04.54.12.98.4,1.34.8.31.34.55.72.67,1.17.05.19.11.39.15.58.09.48.06.95,0,1.43-.03.2-.07.4-.1.6-.08.53-.27,1.02-.5,1.5-.3.64-.7,1.22-1.16,1.76-.54.62-1.13,1.18-1.81,1.66-.46.33-.94.63-1.48.82-.24.15-.53.17-.77.3-.04.02-.1.03-.15.04-.18.02-.35.07-.51.12-.11.03-.22.05-.33.06-.24.02-.48.03-.72.05-.31.02-.63.02-.94,0-.15-.01-.3-.03-.45-.03-.24,0-.48-.03-.7-.12-.05-.02-.1-.04-.15-.04-.22-.01-.41-.1-.61-.18-.58-.21-1.07-.55-1.5-.99-.26-.26-.46-.56-.64-.88-.31-.57-.52-1.17-.63-1.81-.17-.99-.18-1.98-.11-2.98,0-.08.02-.15.02-.23.03-.77.2-1.52.42-2.26.03-.11.06-.22.09-.33.04-.18.01-.23-.15-.29-.12-.04-.23-.09-.35-.14-.51-.21-.93-.54-1.27-.98-.21-.27-.38-.56-.55-.85-.13-.22-.25-.44-.39-.64-.13-.19-.29-.35-.47-.48-.09-.06-.18-.09-.28-.08-.06,0-.13,0-.19.03-.37.14-.71.31-.99.59-.61.59-1.03,1.29-1.36,2.07-.26.61-.5,1.24-.79,1.84-.14.28-.27.57-.45.83-.06.08-.11.17-.18.24-.11.12-.22.24-.35.34-.52.44-1.23.31-1.63-.04-.12-.11-.23-.23-.33-.36-.23-.29-.4-.61-.54-.95-.27-.6-.44-1.23-.53-1.88-.02-.16-.03-.33-.03-.49-.02-.59-.02-1.19.03-1.78.04-.54.1-1.08.28-1.6.02-.05.03-.1.03-.15,0-.04-.02-.07-.03-.11,0-.01-.01-.02-.02-.03-.25-.21-.31-.51-.33-.82-.03-.38.02-.75.1-1.12.16-.69.4-1.35.69-2,.06-.13.14-.24.21-.35,0,0,.03-.01.03,0,.01.02.03.04.02.06-.12.44-.24.88-.35,1.31-.05.18-.09.37-.14.55-.08.35-.09.7-.05,1.05,0,.09.04.17.07.25.02.05.05.09.08.12.13.13.28.14.45.05.14-.09.25-.21.35-.34.07-.1.14-.21.22-.31.01-.01.05-.01.07-.01,0,0,.02.02.02.03-.09.39-.16.79-.33,1.15-.04.08-.08.16-.12.23-.11.16-.25.28-.45.32-.06.01-.12.03-.2.05ZM20.72,36.15c0,.13,0,.23,0,.34,0,.7.16,1.37.45,2.01.22.49.55.9.98,1.23.53.41,1.13.66,1.78.8.61.13,1.22.18,1.84.19.65,0,1.28-.11,1.9-.28.39-.11.76-.26,1.13-.42.84-.38,1.63-.85,2.34-1.45.49-.42.93-.88,1.3-1.41.14-.21.27-.43.38-.65.07-.16.14-.32.15-.5.04-.42-.02-.83-.22-1.21-.16-.3-.37-.57-.62-.8-.39-.36-.85-.58-1.36-.69-.47-.1-.94-.16-1.42-.18-.79-.03-1.59-.07-2.38-.1-.59-.02-1.18-.02-1.78-.03-.87-.02-1.74-.04-2.6-.19-.26-.04-.52-.08-.79-.11-.05,0-.1-.02-.15-.02-.08,0-.15.04-.19.11-.05.09-.09.18-.12.27-.27.69-.44,1.42-.57,2.15-.06.32-.05.65-.05.95Z"/>
        <path class="cls-1" d="M41.24,27.88c-.01.24-.03.54-.05.84,0,.06-.02.12-.04.18-.05.16-.09.32-.16.46-.07.17-.16.34-.26.5-.54.94-1.45,1.64-2.42,2.09-.37.17-.75.31-1.14.39-.41.08-.82.14-1.24.16-.41.02-.8-.06-1.19-.16-.94-.24-1.46-1.4-1.54-2.28-.01-.14-.04-.27-.07-.41-.06-.26-.08-.52-.09-.79,0-.16,0-.33,0-.49,0-.53-.03-1.06-.08-1.58-.07-.69-.08-1.38-.09-2.08,0-.88-.01-1.76-.06-2.64-.03-.49-.07-.98-.09-1.47-.02-.45-.03-.91-.03-1.36,0-.53-.03-1.06-.12-1.58-.1-.58-.15-1.17-.24-1.75-.08-.52-.23-1-.36-1.51-.02-.1-.1-.17-.18-.23-.03-.02-.11-.03-.14,0-.04.03-.09.06-.12.09-.07.1-.16.2-.2.32-.07.2-.19.38-.25.59-.04.15-.13.3-.2.44-.01.03-.04.03-.07.01-.02-.01-.05-.03-.05-.05-.06-.49.08-.99.23-1.46.1-.34.24-.67.4-.99s.29-.59.66-.66c.03,0,.08,0,.11.02.14.04.25.12.32.25.08.14.19.27.22.44.01.06.04.12.06.18,0,.01.01.02.02.03.02.06.07.12.07.17,0,.32.17.66.23.98.07.43.14.86.2,1.29.16,1.22.31,2.48.31,3.71,0,.97.02,1.94.08,2.91.08,1.26.09,2.52.1,3.78,0,.73.04,1.46.13,2.19.02.14.03.28.04.41,0,.18.03.35.12.51.02.04.04.09.05.14.08.33.26.6.49.83.06.06.13.11.21.16.33.2.81.17,1.18.16.44-.01.89-.08,1.32-.18,1.08-.25,2.25-.7,3.11-1.41.16-.13.26-.26.27-.48,0-.25-.11-.48-.14-.72-.05-.37-.25-.68-.41-1.01-.38-.6-.85-1.13-1.5-1.46-.06-.03-.11-.05-.17-.07-.07-.02-.15-.03-.22-.07-.2-.11-.41-.11-.63-.11-.13,0-.25.02-.36.09-.06.04-.14.06-.21.09-.11.05-.18.13-.25.23-.09.12-.08.33.01.47.08.11.17.18.31.18.34,0,.68.02,1.01-.09.08-.03.17-.04.26-.05.15-.02.3,0,.44.08.18.09.33.22.47.37.19.21.31.46.44.7.06.1.09.2.16.3.05.07.06.16.06.25,0,.06-.07.12-.13.1-.13-.05-.26-.09-.39-.14-.12-.05-.24-.08-.37-.08-.19,0-.38.02-.56.08-.18.06-.37.09-.56.1-.14,0-.28.02-.41.05-.32.06-.63-.02-.93-.08-.11-.07-.22-.12-.32-.2-.21-.19-.38-.4-.44-.69-.01-.06-.03-.12-.05-.18-.09-.27-.09-.54-.03-.82.04-.17.07-.35.12-.52.05-.17.11-.34.19-.49.21-.39.45-.76.77-1.06.18-.17.38-.29.6-.39.04-.02.1-.04.14-.04.29-.01.58-.05.85.1.02.01.05.02.07.03.4.1.73.34,1.03.6,1.15,1,1.61,2.3,1.68,3.78Z"/>
        <path class="cls-1" d="M13.27,24.12c.45.3.88.58,1.31.87.07.05.15.09.22.14.04.02.11.01.14-.02.04-.05.08-.1.11-.15.21-.33.41-.66.62-.99.03-.04.06-.08.09-.12.03-.04.09-.05.14-.03.01,0,.02.01.03.02.46.27.91.53,1.37.8.02.01.04.03.06.05.04.04.07.13.05.17-.05.09-.09.18-.15.26-.23.35-.46.69-.68,1.04-.08.13-.1.14-.24.05-.24-.14-.47-.29-.71-.43-.21-.13-.43-.27-.64-.4-.13-.08-.17-.07-.24.05-.15.24-.29.47-.43.71-.09.15-.18.3-.27.46-.04.07-.17.09-.24.05-.45-.28-.89-.56-1.34-.85-.04-.03-.08-.06-.12-.09-.06-.05-.07-.14-.03-.2.23-.35.46-.69.68-1.04.08-.12.15-.24.27-.34Z"/>
        <path class="cls-1" d="M25.46,13.49s.06,0,.08.01c.12.07.24.14.36.21.26.17.52.35.79.52.09.06.2.11.3.16.06.03.16,0,.2-.06.07-.1.13-.21.2-.32.18-.27.36-.55.54-.82.04-.07.13-.09.2-.06.09.04.18.09.27.14.27.16.53.33.8.5.05.03.11.06.16.1.24.17.26.23.1.49-.17.28-.36.55-.53.82-.05.08-.11.17-.16.25-.04.07-.17.09-.24.06-.1-.06-.19-.12-.29-.17-.31-.19-.62-.38-.93-.58-.03-.02-.07-.04-.1-.05-.1-.05-.25,0-.3.09-.2.32-.39.64-.59.96-.01.02-.02.04-.04.06-.07.09-.2.16-.33.09-.12-.07-.24-.13-.36-.21-.26-.16-.51-.32-.76-.48-.09-.06-.18-.13-.27-.21-.04-.03-.05-.09-.03-.14.05-.1.1-.21.16-.3.19-.31.39-.61.59-.92.03-.04.06-.08.1-.11.03-.02.07-.03.1-.04Z"/>
        <path class="cls-1" d="M19.01,18.3c.04-.15.06-.29.16-.42.08-.12.1-.26.12-.39.01-.14.06-.27.14-.39.06-.1.2-.14.3-.08.16.1.32.21.46.33.36.31.65.66.88,1.07.16.3.17.6.09.92-.03.14-.12.25-.22.35-.1.1-.22.13-.35.09-.18-.07-.36-.13-.52-.22-.23-.12-.27-.08-.42.08-.04.05-.08.1-.12.14-.38.48-.85.86-1.36,1.18-.98.61-2,1.11-3.07,1.52-.55.21-1.11.41-1.67.58-.04.01-.07.02-.11.02-.02,0-.04-.02-.06-.03,0,0,0-.03.02-.03.12-.07.24-.15.36-.21.92-.47,1.84-.93,2.76-1.4.73-.38,1.44-.78,2.11-1.25.12-.09.25-.18.37-.26.12-.09.24-.18.37-.26.1-.06.18-.14.25-.22.02-.02.02-.09,0-.1-.09-.07-.18-.14-.28-.19-.09-.05-.16-.12-.22-.2-.05-.06-.08-.13-.08-.21,0-.09,0-.18.01-.26,0-.07.05-.11.1-.15.08,0,.13.06.18.12.15.18.35.27.56.35.08.03.15-.02.17-.1.03-.15.02-.3,0-.44-.02-.19-.26-.3-.39-.25-.13.05-.25.1-.34.21-.04.05-.12.08-.19.12ZM20.93,19.18s0-.05,0-.07c-.07-.2-.18-.38-.31-.55-.27-.35-.26-.3-.45.05-.09.16-.04.32.12.42.04.03.09.05.13.07.12.04.23.09.35.13.03.01.07.01.11,0,.02,0,.04-.03.05-.05Z"/>
        <path class="cls-1" d="M23.49,14.02s0,.05-.01.07c-.12.18-.27.33-.43.48-.14.13-.31.22-.49.28-.66.21-1.3.47-1.95.71-.88.34-1.76.69-2.61,1.09-.45.2-.9.4-1.33.62-.11.06-.23.09-.35.13-.04.01-.1-.05-.09-.1,0-.01,0-.03,0-.04.08-.15.17-.31.26-.45.1-.15.25-.25.41-.33.61-.3,1.21-.6,1.83-.88.32-.15.65-.27.98-.4.58-.22,1.15-.45,1.73-.65.57-.2,1.15-.38,1.73-.53.08-.02.17-.03.26-.04.02,0,.03.03.05.04Z"/>
        <path class="cls-1" d="M13.4,19.69c-.18,0-.35.02-.52.07-.06.02-.12.02-.19.02-.05,0-.1-.06-.08-.1.04-.1.07-.22.13-.31.11-.17.23-.33.35-.49.04-.05.1-.09.15-.11.26-.09.53-.16.81-.15.37.02.73.07,1.09.14.02,0,.05.01.07.02.05.02.1.09.1.15,0,.08,0,.15-.05.22-.07.11-.13.22-.21.31-.25.32-.5.63-.79.91-.05.05-.11.1-.17.15-.11.09-.23.15-.37.17-.39.06-.77.12-1.16.18-.05,0-.1,0-.15-.02-.02,0-.04-.03-.05-.05,0-.02,0-.05.02-.06.11-.06.22-.13.33-.17.32-.11.61-.29.92-.42.13-.05.24-.13.36-.2.05-.03.04-.13-.01-.16-.04-.02-.09-.05-.14-.06-.15-.02-.3-.03-.45-.04Z"/>
        <path class="cls-1" d="M37.74,22.2c-.21-.08-.39-.22-.58-.34-.15-.1-.29-.19-.44-.29-.08-.06-.16-.12-.24-.18-.06-.05-.07-.13-.05-.21,0-.04.02-.07.04-.11.17-.29.35-.58.51-.88.03-.06.1-.11.16-.16.04-.03.1-.04.14-.01.1.05.2.11.29.17.23.16.45.32.68.48.05.04.11.07.15.11.12.12.21.19.05.42-.16.24-.3.49-.45.74-.08.14-.08.14-.26.26Z"/>
        <path class="cls-1" d="M35.9,16.5c0-.19,0-.37-.02-.56-.11-.88-.53-1.69-1.13-2.33,0,0-.02-.02-.03-.02-.27-.27-.28-.28-.25-.66,0-.1.03-.2.05-.3.02-.1.17-.14.25-.07.02.02.04.03.06.05.76.89,1.42,1.87,1.51,3.07.02.28-.07.52-.08.79,0,.29-.13.53-.24.79,0,.02-.04.03-.06.03-.02,0-.05-.02-.06-.03-.01-.03-.02-.07-.02-.11,0-.21,0-.43,0-.64Z"/>
        <path class="cls-1" d="M39.52,17.4s0,.06,0,.08c-.07.11-.14.21-.21.31-.21.32-.52.39-.86.51-.7.27-1.38.57-2.06.88-.41.18-.81.39-1.22.58-.03.01-.07.01-.11.01-.03,0-.08-.04-.07-.07.01-.06.02-.13.05-.18.05-.1.12-.19.18-.28.03-.04.07-.07.11-.1.57-.37,1.24-.64,1.86-.91.73-.31,1.52-.48,2.23-.85.03-.01.07,0,.1.01Z"/>
        <path class="cls-1" d="M16.54,32.76c.12-.25.34-.4.53-.58.12-.12.27-.18.43-.23.11-.04.22-.03.33.03.04.02.09.05.13.07.1.06.16.16.19.27.04.2.04.4-.04.59-.07.17-.15.34-.27.5-.19.25-.4.49-.62.71-.39.39-.83.74-1.27,1.07-.04.03-.09.05-.13.08-.04.03-.08.05-.14.03-.03-.01-.02-.07.04-.12.1-.1.2-.19.3-.29.22-.22.45-.44.67-.66.2-.2.37-.41.53-.64.07-.09.13-.19.17-.29.04-.09.06-.19.07-.29.02-.23-.16-.39-.38-.35-.11.02-.22.06-.33.09-.07.02-.15.03-.22,0h0Z"/>
        <path class="cls-1" d="M27.68,30.36s-.02-.01-.03-.02c0,0-.01-.02,0-.03.04-.09.07-.19.12-.27.1-.15.19-.3.38-.35.28-.17.59-.27.87-.45.2-.03.36-.17.55-.23.17-.05.31-.17.49-.2.2-.14.44-.17.66-.27.17-.08.35-.12.53-.2.08-.03.17-.02.26-.03.05,0,.09.07.07.11-.18.28-.42.49-.75.6-.26.09-.52.19-.77.29-.21.09-.4.21-.62.26-.18.12-.4.16-.58.27-.12.07-.25.12-.37.17-.24.1-.47.24-.72.32-.02,0-.05.01-.07.02Z"/>
        <path class="cls-1" d="M23.06,19.39c.04-.3.05-.56.17-.8.04-.09.07-.19.12-.28,0-.02.05-.03.06-.02.02,0,.04.04.04.06,0,.12-.03.25-.04.37,0,.1-.01.2,0,.3,0,.06.04.12.06.17.04.07.14.13.22.11.06-.01.12-.03.18-.05.08-.02.15.05.13.14-.01.06-.03.13-.06.17-.09.12-.19.23-.33.3-.18.1-.43.02-.49-.19-.03-.11-.05-.22-.06-.3Z"/>
        <path class="cls-1" d="M30.45,22.2s0-.06.01-.11c.04-.2.09-.39.14-.59,0-.01.01-.02.02-.03.02-.01.04-.03.06-.03.02,0,.05.03.05.04.01.07.02.15.02.22,0,.06,0,.13,0,.19,0,.12.06.21.15.29.08.06.14.07.24.02.05-.03.11-.07.16-.09.02,0,.05,0,.07,0,.03.01.05.07.03.1-.03.07-.07.13-.1.2-.05.15-.17.24-.3.33-.15.1-.32.06-.43-.09-.09-.13-.15-.26-.14-.46Z"/>
        <polygon class="cls-1" points="16.54 32.75 16.55 32.77 16.54 32.76 16.54 32.75"/>
        <path class="cls-1" d="M30.78,35.73c-.03.05-.05.12-.1.16-.15.15-.3.31-.46.45-.59.5-1.24.9-1.96,1.2-.63.26-1.28.46-1.95.57-.43.06-.85.08-1.27-.04-.11-.03-.21-.08-.32-.12-.09-.04-.17-.11-.24-.18-.23-.23-.19-.58-.06-.77.07-.09.14-.18.22-.26.18-.18.39-.32.61-.45.11-.06.21-.13.32-.2.02-.01.02-.04.03-.06,0-.02-.04-.06-.08-.06-.01,0-.03,0-.04,0-.27-.03-.53.01-.77.13,0,0-.02,0-.03,0-.03-.01-.04-.03-.03-.06,0-.01,0-.03,0-.04.05-.14.14-.27.25-.37.13-.13.29-.2.47-.2.19,0,.38,0,.56.08.18.08.26.24.19.43-.04.11-.1.2-.2.27-.13.1-.27.18-.41.27-.16.1-.33.19-.49.29-.11.07-.2.15-.28.25-.05.07-.05.18.02.24.05.04.1.08.15.11.29.16.61.22.94.24.34.02.68-.02,1.01-.09.97-.2,1.89-.53,2.74-1.03.25-.15.49-.31.71-.49.11-.09.22-.17.33-.25.02-.02.07,0,.11,0,0,0,0,0,0,0Z"/>
        <path class="cls-1" d="M30.79,35.74s0-.04,0-.06c.01,0,.02,0,.03,0-.01.02-.02.03-.03.05,0,0,0,0,0,0Z"/>
      </g>
    </g>
  </g>
</svg>