<?xml version="1.0" encoding="UTF-8"?>
<svg id="Layer_2" data-name="Layer 2" xmlns="http://www.w3.org/2000/svg" viewBox="0 0 42.71 46.09">
  <defs>
    <style>
      .cls-1 {
        fill: none;
        stroke: #e6d0a5;
        stroke-miterlimit: 10;
        stroke-width: .25px;
      }

      .cls-2 {
        fill: #e6d0a5;
        stroke-width: 0px;
      }
    </style>
  </defs>
  <g id="Layer_1-2" data-name="Layer 1">
    <path class="cls-1" d="M33.3,33.62c-3.37,3.58-7.35,5.37-11.94,5.37-4.1,0-7.76-1.45-10.97-4.34-3.33-3.35-4.99-7.17-4.99-11.48v-.26c0-3.94,1.42-7.52,4.27-10.74,3.32-3.39,7.24-5.08,11.74-5.08,3.89,0,7.41,1.35,10.57,4.05,1.6,1.57,2.51,2.65,2.73,3.24,1.73,2.64,2.6,5.52,2.6,8.65,0,3.89-1.34,7.42-4.01,10.59Z"/>
    <g>
      <path class="cls-2" d="M3.07,32.91c-.39.28-.77.41-1.15.41h-.21c-.82,0-1.38-.42-1.66-1.27,0-.02-.02-.11-.05-.26.1-.88.49-1.32,1.15-1.32h.05c.59.1.89.37.89.81v.05c-.04.48-.28.72-.72.72-.34-.08-.51-.25-.51-.51v-.04c0-.12.07-.27.2-.43-.31.12-.46.35-.46.69,0,.54.38.86,1.15.97h.09c.83,0,1.33-.53,1.49-1.57v-.26c0-.72-.44-1.27-1.32-1.66l-.09-.14v-2.18c-.35,0-.59-.29-.72-.89v-.29c0-.38.27-.79.81-1.24-.21.05-.41.08-.6.08-.17-.05-.26-.17-.26-.34,0-.08.13-.28.39-.6-.74-.13-1.11-.33-1.11-.6,0-.25.37-.45,1.11-.58-.26-.31-.39-.52-.39-.65,0-.18.12-.28.34-.3.12,0,.3.03.52.09-.54-.45-.81-.87-.81-1.24v-.3c.13-.6.37-.9.72-.9v-2.17s.31-.25.94-.64c.31-.42.47-.79.47-1.11v-.3c-.16-1.06-.66-1.58-1.49-1.58h-.04c-.54,0-.93.23-1.15.69l-.05.29c0,.34.15.57.46.69v-.05c-.08,0-.15-.12-.2-.38v-.05c0-.33.21-.5.63-.5.33,0,.53.24.6.72v.05c0,.42-.3.7-.89.81-.57,0-.96-.31-1.15-.94l-.05-.38c0-.72.46-1.22,1.37-1.51.15-.03.3-.04.43-.04h.12c.89,0,1.53.54,1.92,1.63.06.11.09.27.09.47v.38c0,.78-.44,1.45-1.32,2h-.09v1.84c.32.2.49.35.51.46.06.11.09.23.09.36-.04.45-.26.67-.65.67h-.04c-.16,0-.27-.07-.34-.21v-.22s.06-.1.17-.17h.26v-.12c-.05-.11-.15-.17-.29-.17-.29.05-.43.19-.43.43v.25c0,.23.37.61,1.1,1.15.29.38.43.69.43.95l-.14.63c.07.11.11.29.14.55,0,.51-.38,1.01-1.15,1.5-.25.23-.38.45-.38.68v.17c.05.28.19.43.43.43.14,0,.24-.06.29-.17v-.12h-.26s-.1-.07-.17-.19v-.2c.07-.14.18-.21.34-.21h.09c.34,0,.54.22.6.67,0,.37-.2.63-.6.77v1.87c.23.03.55.28.94.74.31.45.47.87.47,1.27v.39c0,.59-.28,1.15-.86,1.67Z"/>
      <path class="cls-2" d="M20.69,43.53c.06.21.09.41.09.63,0,.86-.47,1.49-1.41,1.89-.15.03-.28.04-.38.04h-.05c-.64,0-1.1-.34-1.36-1.02-.03-.12-.04-.22-.04-.31,0-.45.27-.78.8-.98h.26c.46.13.69.36.69.69-.06.43-.25.64-.56.64-.23,0-.43-.14-.6-.43v.05c.1.51.36.76.77.76h.13c.49,0,.86-.35,1.11-1.07.03-.11.04-.22.04-.34,0-.77-.49-1.33-1.48-1.67h-.43c-.37,0-.8.17-1.29.52h-.03c-1.24-.71-1.9-1.07-1.97-1.07,0,.1-.2.19-.6.26-.82,0-1.29-.54-1.41-1.63h-.04c0,.36-.16.61-.47.74-.18,0-.34-.25-.47-.74h-.05c-.34.49-.64.74-.89.74-.19,0-.29-.1-.29-.31v-.21c0-.29.07-.56.2-.82h-.03c-.21.06-.43.1-.64.1-.15-.05-.22-.14-.22-.3v-.13s.13-.2.38-.51c-.3.15-.62.24-.93.26-.85-.11-1.28-.51-1.28-1.2v-.21c-1.28-.68-1.93-1.08-1.93-1.2.03-.2.05-.37.05-.51,0-.86-.5-1.44-1.49-1.75-.03,0-.15,0-.34-.04-.77,0-1.27.4-1.5,1.2l-.03.24c.06.64.37.95.93.95.03,0,.14-.04.34-.14v-.04h-.05l-.21.04c-.31-.06-.46-.21-.46-.46v-.16c0-.29.2-.46.6-.53h.12c.36,0,.58.24.67.72v.22c0,.51-.35.82-1.05.94-.86,0-1.36-.52-1.49-1.54,0-.96.55-1.63,1.65-1.99.13,0,.29-.02.48-.05,1,0,1.75.53,2.26,1.58.11.24.17.55.17.94v.21l1.58.85c.21-.14.4-.2.55-.2h.04c.49.09.73.28.73.58v.18c-.07.31-.19.46-.39.46s-.29-.09-.29-.29v-.14c.05-.07.08-.11.08-.12,0-.06-.03-.09-.08-.09h-.14c-.14.08-.21.2-.21.35v.08c0,.28.21.45.64.52.24,0,.64-.13,1.2-.38.19-.06.36-.09.51-.09.46,0,.83.18,1.12.55.36,0,.7.23,1.01.69.13.2.25.72.35,1.53.19.34.4.51.63.51h.05c.28-.04.43-.17.43-.38v-.08s-.04-.09-.13-.14h-.04c0,.18-.1.26-.31.26-.19,0-.29-.1-.29-.3,0-.32.22-.51.67-.56.47.14.7.37.7.69v.29c.09.12.61.43,1.58.94.46-.27.87-.41,1.22-.41h.31c1,0,1.74.56,2.21,1.7Z"/>
      <path class="cls-2" d="M2.47,10.72c-.02-.06-.04-.22-.07-.48.12-1.02.63-1.53,1.53-1.53.68.14,1.01.46,1.01.95v.2c-.09.49-.31.73-.67.73h-.12c-.4-.06-.6-.23-.6-.52v-.17c0-.25.17-.41.5-.46h.05c.05.02.09.03.12.03-.04-.11-.17-.16-.38-.16-.47,0-.75.31-.84.93,0,.66.35,1.11,1.05,1.37.05.03.2.06.48.09.86,0,1.45-.49,1.78-1.46.03-.15.05-.31.05-.46l-.05-.38c0-.13.65-.52,1.93-1.2v-.21c0-.58.32-.96.94-1.16l.38-.04c.28.02.58.11.89.26v-.05c-.13-.08-.26-.23-.38-.46v-.14c0-.19.11-.29.34-.29.09,0,.27.03.55.08-.13-.25-.2-.51-.2-.8v-.21c0-.21.1-.31.29-.31.21,0,.5.23.89.69v.03h.05c.13-.48.29-.72.47-.72.31.13.47.37.47.72h.04c.12-1.07.59-1.61,1.41-1.61.17,0,.39.08.68.25,1.06-.63,1.7-.98,1.92-1.06.48.33.91.5,1.29.5h.21c.81,0,1.38-.49,1.7-1.49v-.21c0-.67-.35-1.12-1.07-1.37h-.21c-.52.11-.77.36-.77.77v.05c.17-.29.37-.43.6-.43.31,0,.5.21.56.64,0,.36-.24.58-.73.68h-.12c-.49,0-.78-.34-.9-1.02v-.04c0-.51.36-.91,1.06-1.2.12-.03.23-.05.34-.05h.05c.79,0,1.37.51,1.75,1.51.03.23.04.42.04.55,0,.56-.28,1.12-.86,1.66-.47.37-.95.55-1.44.55h-.31c-.35,0-.76-.14-1.22-.43-.97.52-1.49.84-1.58.95v.29c0,.38-.28.61-.82.7-.37-.11-.55-.3-.55-.57,0-.2.1-.29.29-.29.21,0,.31.08.31.26h.04s.08-.05.13-.14v-.08c0-.21-.15-.34-.43-.38h-.05c-.42,0-.66.37-.72,1.1,0,.78-.35,1.31-1.06,1.58-.16,0-.32.12-.47.34-.31.18-.6.26-.86.26-.3,0-.78-.16-1.45-.47h-.26c-.43.06-.64.23-.64.52v.08c0,.15.07.26.21.33h.14c.05,0,.08-.02.08-.07l-.08-.14v-.12c0-.2.11-.3.34-.3.22.12.34.27.34.46v.17c0,.31-.24.51-.73.6h-.04c-.12,0-.32-.07-.6-.21-.96.57-1.47.86-1.53.86v.21c0,1.15-.57,1.95-1.71,2.4-.35.08-.6.12-.77.12-.98,0-1.65-.53-2.01-1.58Z"/>
      <path class="cls-2" d="M22.06,2.61c-.05-.19-.08-.36-.08-.52v-.17c0-.9.48-1.52,1.44-1.87.05-.03.13-.05.22-.05h.17c.67,0,1.13.38,1.36,1.12v.3c0,.4-.25.69-.76.89h-.22c-.48-.1-.72-.3-.72-.63v-.09c.05-.4.22-.6.51-.6h.09c.29,0,.45.17.46.52h.04v-.35c-.16-.37-.42-.56-.76-.56h-.08c-.56,0-.95.42-1.15,1.25v.29c0,.56.39,1.05,1.18,1.46.21.05.38.07.52.07h.22c.37,0,.77-.17,1.23-.5h.09l1.87,1.06c.25-.17.49-.25.72-.25.6,0,1.03.37,1.29,1.1.03.29.07.43.12.43,0-.32.15-.52.43-.59h.13c.12,0,.24.22.35.67.44-.48.76-.72.97-.72s.3.11.3.34v.04c0,.3-.07.61-.21.94h.04c.22-.05.42-.08.6-.08.11.04.2.12.25.22v.07c0,.14-.13.35-.39.65.33-.17.65-.26.96-.26.72,0,1.15.4,1.27,1.2l-.05.16c1.07.61,1.69.98,1.88,1.12.03.05.04.1.04.17v.51c0,.81.49,1.38,1.46,1.7l.38.05c1-.14,1.49-.61,1.49-1.41v-.17c0-.45-.28-.72-.86-.81h-.03c-.25.06-.38.13-.38.21.09-.05.17-.08.24-.08.3,0,.47.19.53.56v.04c-.1.37-.28.55-.56.55h-.14c-.41,0-.67-.27-.76-.81,0-.61.37-.97,1.1-1.07.77,0,1.26.44,1.46,1.33v.25c0,.94-.54,1.59-1.63,1.96-.11,0-.26.02-.46.05-1.06,0-1.84-.57-2.34-1.71-.07-.26-.1-.48-.1-.64v-.29c-.09-.1-.63-.43-1.61-.98-.13.16-.32.24-.55.24-.51-.09-.77-.32-.77-.67.06-.37.22-.56.46-.56.12.03.21.11.26.22v.08l-.09.3.09.03h.08c.17-.09.26-.23.26-.41-.09-.35-.33-.52-.72-.52-.08,0-.57.16-1.46.47h-.24c-.37,0-.73-.18-1.08-.55-.85-.17-1.27-.81-1.27-1.92-.11-.54-.37-.81-.77-.81-.24,0-.38.15-.43.46l.17.14h.05c0-.18.09-.26.29-.26h.09c.14.08.21.18.21.29,0,.31-.23.5-.69.57-.36,0-.61-.28-.72-.82l.05-.21c-1.03-.61-1.58-.91-1.67-.91-.35.29-.76.43-1.23.43h-.22c-1,0-1.74-.55-2.22-1.66Z"/>
      <path class="cls-2" d="M40.27,35.38c.04.14.05.29.05.43v.12c-.13.97-.63,1.45-1.49,1.45-.54,0-.9-.32-1.07-.94v-.22c.13-.48.39-.72.76-.72h.14c.37.1.56.28.56.56v.04c-.06.37-.23.55-.53.55-.07,0-.15-.02-.24-.07v.03c.15.12.28.18.38.18h.03c.58-.09.86-.36.86-.81v-.17c0-.8-.49-1.27-1.49-1.41-.84,0-1.43.45-1.79,1.36-.03.16-.05.29-.05.39v.5c0,.19-.21.36-.63.53-.01.03-.44.28-1.29.76l.05.22c-.13.77-.57,1.15-1.32,1.15-.27,0-.57-.09-.91-.26v.05c.26.23.39.43.39.59v.08c-.07.14-.19.22-.34.22-.08,0-.27-.04-.55-.1.14.34.21.66.21.95v.04c0,.23-.1.35-.3.35-.21,0-.53-.25-.97-.74,0,.36-.16.61-.48.74-.18,0-.32-.22-.43-.65-.03,0-.1.24-.21.72-.34.55-.72.82-1.15.82-.28,0-.54-.09-.77-.26l-1.87,1.07c-.08,0-.27-.1-.56-.31-.25-.14-.51-.21-.76-.21h-.22c-.79,0-1.35.47-1.7,1.41v.34c0,.61.34,1.06,1.01,1.33h.22c.51-.09.76-.32.76-.69v-.21h-.04c-.01.35-.17.52-.46.52h-.09c-.29,0-.46-.2-.51-.6v-.09c0-.33.24-.54.72-.64h.17c.37,0,.64.28.81.86v.33c-.23.75-.69,1.12-1.36,1.12h-.17c-.37-.03-.75-.23-1.15-.6-.34-.41-.51-.86-.51-1.33v-.17c0-.92.59-1.63,1.78-2.13l.52-.03h.22c.39,0,.83.14,1.32.41.9-.49,1.42-.8,1.58-.94l-.05-.21c0-.42.29-.68.86-.77.28,0,.46.2.55.6-.04.12-.11.21-.21.26h-.22c-.11-.06-.16-.15-.16-.26h-.05s-.1.06-.17.17c.06.29.21.43.43.43.56,0,.84-.53.84-1.58.27-.74.64-1.11,1.12-1.11.42-.36.74-.55.94-.55.03-.03.13-.04.29-.04.25,0,.74.15,1.49.47h.22c.43-.07.64-.27.64-.6,0-.11-.09-.23-.26-.35h-.08c-.06.01-.09.04-.09.09.06.09.09.18.09.26v.08c-.07.14-.18.21-.33.21-.26-.12-.39-.32-.39-.59.13-.42.38-.63.72-.63h.05c.23,0,.42.08.55.24.98-.55,1.52-.88,1.61-.98v-.29c0-1.05.6-1.8,1.8-2.26l.64-.09c1,0,1.68.53,2.04,1.58Z"/>
      <path class="cls-2" d="M41.64,14.98v.05h.05c.28-.12.43-.31.43-.55v-.22c0-.49-.39-.79-1.15-.9h-.17c-.59,0-1.03.4-1.34,1.19-.05.14-.08.32-.08.56,0,.77.47,1.37,1.42,1.79l.03.31v1.95c.49.15.73.51.73,1.07s-.28.99-.86,1.32v.05c.26-.06.44-.09.56-.09.16,0,.27.1.33.3-.02.15-.15.36-.41.65.77.13,1.15.33,1.15.58v.05c-.27.37-.66.55-1.15.55.25.26.38.47.41.64-.05.2-.17.3-.38.3-.27-.02-.42-.05-.46-.08h-.05v.05c.58.32.86.76.86,1.32s-.24.91-.73,1.05v2.06c0,.21-.21.37-.63.51-.54.43-.82.97-.82,1.62s.35,1.16,1.03,1.54c.19.05.31.08.39.08h.17c.76-.11,1.15-.4,1.15-.89v-.22c0-.24-.15-.43-.43-.55h-.05v.04c.12,0,.21.15.26.43-.1.34-.29.51-.55.51-.37,0-.6-.2-.69-.6v-.26c.1-.48.43-.72.98-.72.72.14,1.07.56,1.07,1.24v.22c0,.64-.5,1.11-1.5,1.39h-.38c-.92,0-1.58-.56-1.97-1.7-.05-.24-.07-.44-.07-.6,0-.92.48-1.67,1.44-2.25v-1.8c-.39-.14-.58-.36-.58-.64v-.25c0-.33.22-.51.67-.55.23.02.34.13.34.34,0,.17-.1.26-.29.26h-.14v.17c.03.08.12.12.26.12.32-.04.48-.2.48-.48v-.07c0-.37-.36-.77-1.08-1.2-.31-.37-.46-.74-.46-1.11,0-.13.04-.3.12-.52-.08-.18-.12-.38-.12-.58,0-.54.42-1.09,1.27-1.63.18-.2.27-.4.27-.6v-.09c-.06-.31-.21-.46-.48-.46-.17.02-.26.06-.26.12v.17h.14c.19,0,.29.1.29.31,0,.19-.16.29-.46.29-.37-.09-.55-.28-.55-.55v-.26c0-.28.19-.49.58-.63v-1.8c-.96-.57-1.44-1.34-1.44-2.3s.49-1.71,1.48-2.18c.26-.06.44-.09.56-.09h.14c.89,0,1.47.44,1.74,1.33v.3c0,.68-.35,1.1-1.07,1.24-.55,0-.88-.25-.98-.74v-.24c.09-.4.32-.6.69-.6.26,0,.45.17.55.5-.05.29-.14.43-.26.43Z"/>
    </g>
    <path class="cls-2" d="M8.73,23.47s-.02.04-.02.05c-.04.29-.09.58-.1.88,0,.52-.01,1.03,0,1.55,0,.49.11.96.26,1.43.07.21.17.41.3.59.13.18.3.33.52.4.2.07.41.08.62.04.14-.03.26-.1.36-.19.14-.13.27-.27.37-.43.11-.18.21-.37.3-.56.2-.43.4-.86.6-1.29.15-.32.28-.66.46-.97.34-.6.75-1.15,1.29-1.59.11-.09.22-.16.34-.24.15-.1.33-.14.51-.17.15-.02.29.01.41.11.23.17.42.38.58.62.15.23.29.47.41.71.11.21.25.39.38.58.09.13.21.24.34.32.21.14.42.29.67.35.04,0,.08.03.11.05.14.09.3.1.45.14.04.01.09,0,.11-.04.06-.07.12-.15.18-.22.13-.18.26-.36.4-.53.39-.47.83-.89,1.29-1.3.29-.2.55-.43.84-.62.31-.2.63-.38.94-.57.05-.03.11-.05.17-.09.04-.02.06-.06.05-.11,0-.04-.04-.08-.08-.08-.06,0-.13-.01-.19-.01-.99-.02-1.98-.03-2.98-.05-.53,0-1.06-.01-1.58-.02-.07,0-.15,0-.22-.02-.05,0-.1-.03-.14-.06-.08-.05-.12-.13-.08-.22.1-.27.14-.55.24-.82.05-.14.12-.27.19-.4.07-.11.16-.2.27-.26.15-.08.29-.17.45-.24.4-.18.79-.39,1.16-.63.29-.19.59-.37.85-.6.11-.1.23-.19.34-.28.29-.23.55-.5.81-.76.08-.08.15-.17.23-.26.27-.34.51-.7.75-1.06.26-.41.51-.82.78-1.23.16-.24.33-.46.52-.68.1-.11.21-.2.34-.29.12-.08.31-.07.42,0,.08.06.17.13.23.22.14.22.25.42.33.67.14.47.08.99.08,1.48,0,.17-.02.34-.08.5-.04.12-.06.25-.09.37-.02.07-.13.09-.18.03-.02-.02-.04-.05-.05-.08-.01-.04-.02-.08-.03-.12,0-.09-.02-.19-.01-.28.02-.27-.06-.52-.17-.76-.06-.13-.14-.26-.24-.37-.06-.06-.13-.11-.21-.14-.07-.03-.14-.03-.22,0-.1.04-.19.09-.26.17-.14.14-.27.3-.38.47-.17.27-.32.54-.48.82-.23.39-.43.8-.69,1.16-.12.27-.33.49-.49.74-.06.1-.14.18-.22.27-.28.3-.57.59-.87.87-.03.03-.06.06-.08.1-.03.06,0,.14.07.15.08.01.17.02.25.02.55.01,1.1.02,1.65.03.6,0,1.2.01,1.8.02.27,0,.55.01.82.02.74.02,1.48.03,2.22-.02.13,0,.25,0,.38,0,.07,0,.13.09.12.16-.02.15-.04.29-.1.43-.03.06-.06.12-.07.18-.03.19-.13.36-.19.54-.02.07-.08.12-.15.15-.2.07-.39.18-.6.18-.22.08-.45.12-.67.18-.14.04-.28.1-.43.11-.05,0-.1.02-.15.04-.13.06-.26.09-.4.1-.02,0-.04,0-.06.01-.2.1-.42.12-.63.21-.07.03-.14.06-.21.07-.08.02-.16.05-.24.08-.06.03-.12.05-.18.06-.08.02-.16.05-.23.09-.14.08-.31.09-.43.18-.12.03-.23.09-.35.15-.31.14-.81.4-1.06.55-.07.04-.15.07-.22.12-.29.19-.59.37-.87.58-.29.22-.57.47-.84.72-.07.06-.13.14-.19.21-.02.02-.03.06-.04.08-.02.05.02.11.07.12.05,0,.1.01.16.02.22.02.44.04.66.07.29.04.59.07.88.07.64,0,1.29,0,1.93.01.45,0,.91,0,1.36,0,.34,0,.67.03,1.01.08.19.03.38.04.57.05.21,0,.42.03.62.1.04.01.08.02.12.03.45.1.82.34,1.13.67.26.28.46.6.56.98.04.16.09.32.12.49.07.4.05.8,0,1.2-.02.17-.06.33-.08.5-.07.44-.23.85-.42,1.26-.25.54-.59,1.02-.97,1.47-.45.52-.95.99-1.51,1.39-.39.27-.79.53-1.24.69-.2.12-.44.14-.65.25-.04.02-.08.03-.12.03-.15.02-.29.06-.43.1-.09.03-.19.04-.28.05-.2.02-.4.03-.6.04-.26.02-.53.02-.79,0-.13-.01-.25-.02-.38-.03-.2,0-.4-.02-.59-.1-.04-.02-.08-.03-.12-.03-.18-.01-.34-.09-.51-.15-.48-.18-.9-.46-1.26-.83-.22-.22-.39-.47-.54-.74-.26-.48-.43-.98-.53-1.52-.15-.83-.15-1.66-.09-2.49,0-.06.02-.13.02-.19.03-.65.17-1.27.35-1.89.03-.09.05-.18.07-.28.03-.15,0-.19-.12-.24-.1-.04-.2-.08-.29-.12-.43-.17-.78-.45-1.07-.82-.18-.22-.32-.47-.46-.71-.11-.18-.21-.37-.33-.54-.11-.16-.24-.29-.4-.4-.07-.05-.15-.07-.24-.07-.05,0-.11,0-.16.02-.31.12-.59.26-.83.5-.51.49-.86,1.08-1.14,1.73-.22.51-.42,1.04-.66,1.54-.11.24-.23.48-.38.69-.05.07-.09.14-.15.2-.09.1-.19.2-.29.29-.43.37-1.03.26-1.37-.03-.1-.09-.19-.19-.28-.3-.19-.24-.33-.51-.46-.79-.22-.51-.37-1.03-.44-1.58-.02-.14-.02-.27-.03-.41-.02-.5-.01-.99.02-1.49.03-.45.08-.9.23-1.34.01-.04.02-.08.02-.12,0-.03-.01-.06-.02-.09,0,0-.01-.02-.02-.02-.21-.18-.26-.43-.28-.68-.02-.32.01-.63.09-.94.13-.58.34-1.13.58-1.67.05-.1.12-.2.18-.3,0,0,.03,0,.03,0,0,.02.02.04.02.05-.1.37-.2.73-.3,1.1-.04.15-.08.31-.11.46-.07.29-.07.59-.04.88,0,.07.03.14.06.21.01.04.04.07.07.1.11.11.24.12.37.04.12-.07.21-.17.29-.29.06-.09.12-.17.18-.26,0-.01.04-.01.06-.01,0,0,.02.02.01.02-.07.33-.14.66-.28.97-.03.07-.06.13-.1.19-.09.13-.21.24-.37.27-.05.01-.1.02-.16.04ZM17.35,30.28c0,.11,0,.2,0,.28,0,.59.13,1.15.38,1.68.19.41.46.75.82,1.03.44.34.94.55,1.49.67.51.11,1.02.15,1.54.16.54,0,1.07-.09,1.59-.23.33-.09.64-.21.95-.35.71-.31,1.36-.71,1.96-1.21.41-.35.78-.74,1.09-1.18.12-.17.23-.36.32-.55.06-.13.11-.27.13-.42.04-.35-.01-.69-.18-1.01-.14-.26-.31-.48-.52-.67-.32-.3-.71-.49-1.14-.58-.39-.08-.79-.14-1.19-.15-.66-.03-1.33-.06-1.99-.08-.5-.02-.99-.02-1.49-.03-.73-.02-1.46-.04-2.18-.16-.22-.04-.44-.06-.66-.09-.04,0-.08-.01-.13-.01-.07,0-.12.03-.16.09-.04.07-.07.15-.1.23-.23.58-.37,1.19-.47,1.8-.05.27-.04.55-.05.79Z"/>
    <path class="cls-2" d="M34.54,23.36c-.01.2-.03.45-.04.71,0,.05-.02.1-.03.15-.04.13-.08.26-.13.39-.06.14-.14.28-.22.42-.45.78-1.21,1.37-2.03,1.75-.31.14-.63.26-.96.33-.34.07-.69.12-1.03.13-.34.02-.67-.05-1-.13-.79-.2-1.22-1.17-1.29-1.91-.01-.12-.03-.23-.06-.34-.05-.22-.07-.44-.08-.66,0-.14,0-.27,0-.41,0-.44-.03-.89-.07-1.33-.06-.58-.07-1.16-.07-1.74,0-.74,0-1.48-.05-2.21-.02-.41-.06-.82-.08-1.23-.02-.38-.02-.76-.03-1.14,0-.44-.02-.89-.1-1.32-.09-.48-.12-.98-.2-1.46-.07-.44-.2-.84-.3-1.26-.02-.09-.08-.15-.15-.2-.03-.02-.09-.02-.12,0-.03.03-.07.05-.1.08-.06.08-.14.17-.17.26-.06.17-.16.32-.21.49-.04.13-.11.25-.17.37-.01.02-.03.03-.06.01-.02-.01-.04-.03-.04-.04-.05-.41.07-.83.19-1.23.09-.28.2-.56.33-.83s.24-.5.55-.55c.03,0,.06,0,.09.01.11.04.21.1.27.21.07.12.16.23.18.37,0,.05.03.1.05.15,0,0,.01.02.01.03.02.05.06.1.06.15,0,.27.14.55.19.82.06.36.12.72.17,1.08.14,1.02.26,2.08.26,3.11,0,.81.02,1.62.07,2.44.07,1.05.08,2.11.09,3.16,0,.61.05,1.22.11,1.83.06.6.19,1.38.76,1.73.28.17.68.15.99.14.37-.01.74-.06,1.1-.15.9-.21,1.88-.58,2.6-1.18.28-.23.24-.55.17-.86-.08-.35-.21-.69-.4-.99-.32-.5-.71-.94-1.25-1.22-.05-.02-.1-.04-.15-.06-.06-.02-.13-.03-.18-.06-.17-.09-.34-.09-.52-.09-.11,0-.21.02-.3.08-.05.03-.11.05-.17.08-.09.04-.15.11-.21.19-.07.1-.07.28.01.39.06.09.15.15.26.15.29,0,.57.02.85-.08.07-.02.14-.03.22-.04.13-.02.25,0,.37.07.15.08.28.18.4.31.16.17.26.38.37.58.05.08.08.17.13.25.04.06.05.14.05.21,0,.05-.06.1-.11.08-.11-.04-.22-.07-.33-.12-.1-.05-.2-.06-.31-.07-.16,0-.32.02-.47.07-.15.05-.31.07-.47.08-.12,0-.23.02-.35.04-.27.05-.52-.02-.78-.07-.09-.06-.19-.1-.26-.17-.17-.16-.32-.33-.36-.58,0-.05-.03-.1-.05-.15-.08-.23-.07-.46-.02-.69.03-.14.06-.29.1-.43.04-.14.09-.28.16-.41.17-.33.38-.63.65-.89.15-.14.32-.24.5-.33.04-.02.08-.03.12-.03.24-.01.49-.04.71.08.02,0,.04.02.06.02.34.09.61.28.86.51.96.84,1.35,1.93,1.41,3.17Z"/>
    <path class="cls-2" d="M11.11,20.2c.38.25.74.49,1.1.72.06.04.12.08.19.12.03.02.09.01.12-.02.03-.04.07-.08.09-.13.17-.28.34-.56.52-.83.02-.04.05-.07.07-.1.02-.03.08-.04.12-.02,0,0,.02,0,.03.01.38.22.76.45,1.15.67.02.01.03.03.05.04.03.03.06.11.04.15-.04.07-.08.15-.12.22-.19.29-.38.58-.57.87-.07.11-.08.11-.2.05-.2-.12-.4-.24-.59-.36-.18-.11-.36-.22-.54-.33-.11-.07-.14-.06-.2.04-.12.2-.24.39-.36.59-.08.13-.15.25-.22.38-.03.06-.14.08-.2.04-.37-.24-.75-.47-1.12-.71-.04-.02-.07-.05-.1-.08-.05-.05-.06-.11-.03-.17.19-.29.38-.58.57-.87.06-.1.12-.2.23-.29Z"/>
    <path class="cls-2" d="M21.32,11.3s.05,0,.07.01c.1.06.2.12.3.18.22.14.44.29.66.44.08.05.16.09.25.14.05.03.13,0,.17-.05.06-.09.11-.18.17-.27.15-.23.3-.46.45-.69.04-.06.11-.07.17-.05.08.04.15.07.22.12.22.14.45.28.67.42.04.03.09.05.13.08.2.14.22.19.08.41-.14.23-.3.46-.45.69-.05.07-.09.14-.14.21-.04.05-.14.08-.2.05-.08-.05-.16-.1-.24-.15-.26-.16-.52-.32-.78-.48-.03-.02-.06-.03-.08-.04-.09-.04-.21,0-.25.07-.16.27-.33.54-.49.81-.01.02-.02.04-.03.05-.06.08-.17.14-.28.08-.1-.06-.2-.11-.3-.17-.21-.13-.43-.27-.64-.41-.08-.05-.15-.11-.22-.17-.03-.03-.04-.07-.02-.12.04-.09.08-.17.13-.25.16-.26.33-.51.5-.77.02-.03.05-.06.09-.09.02-.02.06-.03.08-.04Z"/>
    <path class="cls-2" d="M15.92,15.33c.03-.12.05-.25.13-.35.07-.1.09-.21.1-.33.01-.12.05-.22.12-.32.05-.08.17-.12.25-.06.13.09.27.17.39.27.3.26.55.55.74.9.14.25.14.5.08.77-.03.11-.1.21-.18.29-.08.08-.18.11-.29.07-.15-.05-.3-.11-.44-.18-.19-.1-.23-.07-.35.07-.04.04-.07.08-.1.12-.32.4-.71.72-1.14.99-.82.51-1.68.93-2.57,1.28-.46.18-.93.34-1.4.49-.03,0-.06.02-.09.02-.02,0-.03-.01-.05-.02,0,0,0-.02.01-.03.1-.06.2-.12.3-.17.77-.39,1.54-.78,2.31-1.18.61-.31,1.2-.66,1.77-1.04.1-.07.21-.15.31-.22.1-.07.2-.15.31-.22.08-.05.15-.12.21-.19.02-.02.02-.07,0-.09-.08-.05-.15-.12-.23-.16-.08-.04-.13-.1-.18-.17-.04-.05-.06-.11-.06-.18,0-.07,0-.15,0-.22,0-.06.04-.1.09-.13.07,0,.11.05.15.1.12.15.29.23.47.29.06.02.13-.02.14-.08.03-.12.02-.25,0-.37-.02-.16-.22-.25-.33-.21-.11.04-.21.08-.29.18-.04.05-.1.07-.16.1ZM17.53,16.06s0-.04,0-.06c-.06-.17-.15-.32-.26-.46-.23-.29-.21-.25-.38.04-.08.14-.04.27.1.35.03.02.07.04.11.06.1.04.19.07.29.11.03,0,.06,0,.09,0,.02,0,.03-.03.04-.04Z"/>
    <path class="cls-2" d="M19.68,11.74s0,.04,0,.06c-.1.15-.22.28-.36.4-.12.11-.26.18-.41.23-.55.18-1.09.39-1.63.6-.74.28-1.47.58-2.19.91-.37.17-.75.33-1.12.52-.09.05-.2.07-.3.11-.03.01-.08-.04-.07-.08,0-.01,0-.02,0-.03.07-.13.14-.26.22-.38.09-.13.21-.21.34-.27.51-.25,1.02-.5,1.53-.74.27-.12.54-.23.82-.33.48-.18.96-.37,1.45-.54.48-.17.96-.32,1.45-.44.07-.02.14-.03.22-.04.01,0,.03.02.04.04Z"/>
    <path class="cls-2" d="M11.22,16.49c-.15,0-.3.02-.44.06-.05.01-.1.01-.16.02-.04,0-.08-.05-.07-.08.04-.09.06-.18.11-.26.09-.14.19-.28.29-.41.03-.04.08-.07.13-.09.22-.08.44-.13.68-.12.31.01.61.06.91.12.02,0,.04.01.06.02.04.01.08.08.08.12,0,.07,0,.13-.04.18-.06.09-.11.18-.17.26-.21.27-.42.53-.67.76-.05.04-.09.09-.14.13-.09.07-.2.13-.31.14-.32.05-.65.1-.97.15-.04,0-.08,0-.12-.01-.02,0-.04-.02-.04-.04,0-.02,0-.05.02-.05.09-.05.18-.11.28-.15.27-.09.51-.25.77-.35.11-.04.2-.11.3-.17.04-.02.03-.11-.01-.13-.04-.02-.08-.04-.12-.05-.13-.02-.25-.03-.38-.04Z"/>
    <path class="cls-2" d="M31.61,18.6c-.18-.07-.33-.18-.49-.29-.12-.08-.25-.16-.37-.24-.07-.05-.14-.1-.2-.15-.05-.05-.06-.11-.04-.17,0-.03.02-.06.03-.09.14-.25.29-.48.43-.73.03-.05.08-.1.13-.13.03-.03.08-.03.12-.01.08.05.17.09.24.15.19.13.38.27.57.4.04.03.09.06.13.09.1.1.18.16.04.35-.14.2-.25.41-.38.62-.07.12-.07.12-.22.22Z"/>
    <path class="cls-2" d="M30.07,13.82c0-.16,0-.31-.02-.47-.09-.74-.44-1.41-.94-1.95,0,0-.02-.01-.02-.02-.23-.22-.23-.24-.21-.55,0-.08.02-.17.04-.25.02-.08.14-.11.21-.06.02.01.03.02.05.04.64.75,1.19,1.57,1.27,2.57.02.23-.06.44-.06.66,0,.24-.11.45-.2.66,0,.01-.03.03-.05.03-.02,0-.04-.01-.05-.03-.01-.03-.02-.06-.02-.09,0-.18,0-.36,0-.54Z"/>
    <path class="cls-2" d="M33.1,14.58s0,.05,0,.07c-.06.09-.12.17-.18.26-.17.26-.44.32-.72.43-.59.22-1.15.48-1.73.74-.34.15-.68.32-1.02.49-.03.01-.06,0-.09.01-.03,0-.07-.03-.06-.06.01-.05.01-.11.04-.15.04-.08.1-.16.15-.24.02-.03.06-.06.09-.08.48-.31,1.04-.53,1.56-.76.61-.26,1.28-.41,1.87-.71.02-.01.06,0,.09.01Z"/>
    <path class="cls-2" d="M13.86,27.44c.1-.21.28-.33.45-.48.1-.1.23-.15.36-.19.09-.03.19-.03.28.02.04.02.07.04.11.06.08.05.13.13.16.23.04.17.03.34-.03.5-.06.15-.13.29-.22.42-.16.21-.33.41-.52.6-.33.33-.69.62-1.07.89-.03.03-.07.04-.11.07-.04.02-.07.04-.11.02-.03-.01-.01-.06.03-.1.08-.08.17-.16.25-.24.19-.18.38-.37.56-.56.17-.16.31-.35.45-.53.06-.08.11-.16.14-.25.03-.08.05-.16.06-.24.02-.19-.13-.33-.32-.29-.09.02-.18.05-.27.07-.06.02-.12.03-.19,0h0Z"/>
    <path class="cls-2" d="M23.19,25.43s-.02,0-.03-.02c0,0-.01-.02,0-.03.03-.08.06-.16.1-.23.08-.12.16-.25.32-.29.23-.14.49-.23.72-.38.17-.03.3-.14.46-.19.14-.04.26-.14.41-.17.17-.12.37-.14.55-.22.14-.07.3-.1.44-.17.06-.03.14-.02.22-.02.04,0,.08.06.06.09-.15.24-.35.41-.62.5-.22.07-.43.16-.65.25-.17.07-.34.17-.52.22-.15.1-.33.13-.49.22-.1.06-.21.1-.31.15-.2.08-.39.2-.6.27-.02,0-.04.01-.06.02Z"/>
    <path class="cls-2" d="M19.32,16.24c.03-.25.04-.47.14-.67.04-.08.06-.16.1-.23,0-.01.04-.02.05-.02.01,0,.03.03.03.05,0,.1-.02.21-.03.31,0,.08,0,.17,0,.25,0,.05.03.1.05.15.03.06.12.11.19.1.05,0,.1-.03.15-.04.06-.01.12.05.11.12-.01.05-.02.11-.05.15-.07.1-.16.19-.28.25-.15.09-.36.01-.41-.16-.03-.09-.04-.18-.05-.25Z"/>
    <path class="cls-2" d="M25.5,18.59s0-.05.01-.09c.04-.16.07-.33.11-.49,0,0,0-.02.02-.03.02-.01.03-.03.05-.03.02,0,.04.02.04.04.01.06.01.12.02.19,0,.05,0,.1,0,.16,0,.1.05.18.13.24.07.05.12.06.2.02.05-.02.09-.06.14-.08.01,0,.04,0,.06,0,.02,0,.04.06.03.08-.03.06-.06.11-.08.17-.05.13-.14.2-.25.28-.12.08-.27.05-.36-.07-.07-.11-.12-.22-.12-.39Z"/>
    <polygon class="cls-2" points="13.85 27.43 13.86 27.45 13.86 27.44 13.85 27.43"/>
    <path class="cls-2" d="M25.78,29.93s-.05.1-.08.13c-.12.13-.25.26-.38.37-.49.42-1.04.75-1.64,1-.53.22-1.07.39-1.63.47-.36.05-.71.07-1.07-.03-.09-.03-.18-.06-.26-.1-.08-.03-.14-.09-.2-.15-.19-.19-.16-.49-.05-.64.05-.08.12-.15.18-.22.15-.15.33-.27.51-.37.09-.05.18-.11.27-.17.01,0,.02-.03.03-.05,0-.02-.03-.05-.07-.05-.01,0-.02,0-.03,0-.23-.03-.44.01-.64.11,0,0-.02,0-.03,0-.02,0-.03-.03-.02-.05,0,0,0-.02,0-.03.05-.12.12-.22.21-.31.11-.11.24-.17.4-.17.16,0,.32,0,.47.07.15.06.22.2.16.36-.03.09-.09.17-.16.23-.11.08-.23.15-.34.23-.13.08-.27.16-.41.24-.09.06-.17.12-.23.21-.04.06-.04.15.02.2.04.03.08.07.13.09.24.14.51.18.79.2.29.02.57-.02.85-.08.81-.17,1.58-.45,2.3-.87.21-.12.41-.26.6-.41.09-.07.18-.14.28-.21.02-.01.06,0,.09,0,0,0,0,0,0,0Z"/>
    <path class="cls-2" d="M25.79,29.94s0-.03,0-.05c0,0,.02,0,.03,0,0,.01-.02.03-.03.04,0,0,0,0,0,0Z"/>
  </g>
</svg>