<?xml version="1.0" encoding="UTF-8"?>
<svg id="Layer_2" data-name="Layer 2" xmlns="http://www.w3.org/2000/svg" viewBox="0 0 126.97 50.36">
  <defs>
    <style>
      .cls-1 {
        fill: #e6d0a5;
        stroke-width: 0px;
      }

      .cls-2 {
        fill: #274542;
        stroke: #e6d0a5;
        stroke-miterlimit: 10;
        stroke-width: .25px;
      }
    </style>
  </defs>
  <g id="Layer_1-2" data-name="Layer 1">
    <g>
      <path class="cls-2" d="M38.06,36.74c-3.85,3.91-8.4,5.87-13.65,5.87-4.69,0-8.87-1.58-12.54-4.74-3.81-3.66-5.7-7.83-5.7-12.54v-.28c0-4.31,1.62-8.22,4.88-11.74,3.79-3.7,8.28-5.55,13.42-5.55,4.45,0,8.47,1.48,12.08,4.43,1.83,1.72,2.87,2.9,3.12,3.54,1.98,2.88,2.97,6.03,2.97,9.45,0,4.25-1.53,8.11-4.58,11.57Z"/>
      <g>
        <path class="cls-1" d="M3.51,35.96c-.45.31-.88.45-1.31.45h-.24c-.94,0-1.58-.46-1.9-1.39,0-.02-.02-.12-.06-.28.11-.96.56-1.44,1.31-1.44h.06c.67.11,1.02.4,1.02.89v.05c-.05.52-.32.79-.82.79-.39-.09-.58-.27-.58-.56v-.04c0-.13.08-.29.23-.47-.35.13-.53.38-.53.75,0,.59.43.94,1.31,1.06h.1c.95,0,1.52-.58,1.7-1.72v-.28c0-.79-.5-1.39-1.51-1.81l-.1-.15v-2.38c-.4,0-.67-.32-.82-.97v-.32c0-.42.31-.86.93-1.36-.24.05-.47.09-.69.09-.19-.05-.3-.19-.3-.37,0-.09.15-.31.45-.66-.85-.14-1.27-.36-1.27-.66,0-.27.42-.49,1.27-.63-.3-.34-.45-.57-.45-.71,0-.2.14-.31.39-.33.14,0,.34.03.59.1-.62-.49-.93-.95-.93-1.35v-.33c.15-.66.42-.98.82-.98v-2.37s.35-.27,1.07-.7c.35-.46.54-.86.54-1.21v-.33c-.18-1.16-.75-1.73-1.7-1.73h-.05c-.62,0-1.06.25-1.31.75l-.06.32c0,.37.17.62.53.75v-.05c-.09,0-.17-.13-.23-.42v-.05c0-.36.24-.55.72-.55.38,0,.61.26.69.79v.05c0,.46-.34.76-1.02.89-.65,0-1.1-.34-1.31-1.03l-.06-.42c0-.79.53-1.33,1.57-1.65.17-.03.34-.04.49-.04h.14c1.02,0,1.75.59,2.19,1.78.07.12.1.3.1.51v.42c0,.85-.5,1.58-1.51,2.19h-.1v2.01c.37.22.56.38.58.5.07.12.1.25.1.39-.05.49-.3.73-.74.73h-.05c-.18,0-.31-.08-.39-.23v-.24s.07-.11.19-.19h.3v-.13c-.06-.12-.17-.19-.33-.19-.33.05-.49.21-.49.47v.27c0,.25.42.67,1.26,1.26.33.42.49.75.49,1.04l-.16.69c.08.12.13.32.16.6,0,.56-.43,1.1-1.31,1.64-.29.25-.43.49-.43.74v.19c.06.31.22.47.49.47.16,0,.27-.07.33-.19v-.13h-.3s-.11-.08-.19-.21v-.22c.08-.15.21-.23.39-.23h.1c.39,0,.62.24.69.73,0,.4-.23.69-.69.84v2.04c.26.03.63.31,1.07.81.35.49.54.95.54,1.39v.43c0,.64-.32,1.26-.98,1.82Z"/>
        <path class="cls-1" d="M23.65,47.57c.07.23.1.45.1.69,0,.94-.54,1.63-1.61,2.07-.17.03-.32.04-.43.04h-.06c-.73,0-1.26-.37-1.55-1.11-.03-.13-.05-.24-.05-.34,0-.49.31-.85.91-1.07h.3c.53.14.79.39.79.75-.07.47-.29.7-.64.7-.26,0-.49-.15-.69-.47v.05c.11.56.41.83.88.83h.15c.56,0,.98-.38,1.27-1.17.03-.12.05-.24.05-.37,0-.84-.56-1.45-1.69-1.82h-.49c-.42,0-.91.19-1.47.57h-.03c-1.42-.78-2.17-1.17-2.25-1.17,0,.11-.23.21-.69.28-.94,0-1.47-.59-1.61-1.78h-.05c0,.39-.18.67-.54.81-.21,0-.39-.27-.54-.81h-.06c-.39.54-.73.81-1.02.81-.22,0-.33-.11-.33-.34v-.23c0-.32.08-.61.23-.9h-.03c-.24.07-.49.11-.73.11-.17-.05-.25-.15-.25-.33v-.14s.15-.22.43-.56c-.34.16-.71.26-1.06.28-.97-.12-1.46-.56-1.46-1.31v-.23c-1.46-.74-2.21-1.18-2.21-1.31.03-.22.06-.4.06-.56,0-.94-.57-1.57-1.7-1.91-.03,0-.17-.01-.39-.04-.88,0-1.45.44-1.71,1.31l-.03.26c.07.7.42,1.04,1.06,1.04.03,0,.16-.04.39-.15v-.04h-.06l-.24.04c-.35-.07-.53-.23-.53-.5v-.17c0-.32.23-.5.69-.58h.14c.41,0,.66.26.77.79v.24c0,.56-.4.9-1.2,1.03-.98,0-1.55-.57-1.7-1.68,0-1.05.63-1.78,1.89-2.17.15,0,.33-.02.55-.05,1.14,0,2,.58,2.58,1.73.13.26.19.6.19,1.03v.23l1.81.93c.24-.15.46-.22.63-.22h.05c.56.1.83.31.83.63v.2c-.08.34-.22.5-.45.5s-.33-.1-.33-.32v-.15c.06-.08.09-.12.09-.13,0-.07-.03-.1-.09-.1h-.16c-.16.09-.24.22-.24.38v.09c0,.31.24.49.73.57.27,0,.73-.14,1.37-.42.22-.07.41-.1.58-.1.53,0,.95.2,1.28.6.41,0,.8.25,1.15.75.15.22.29.79.4,1.67.22.37.46.56.72.56h.06c.32-.04.49-.19.49-.42v-.09s-.05-.1-.15-.15h-.05c0,.2-.11.28-.35.28-.22,0-.33-.11-.33-.33,0-.35.25-.56.77-.61.54.15.8.4.8.75v.32c.1.13.7.47,1.81,1.03.53-.3.99-.45,1.39-.45h.35c1.14,0,1.99.61,2.53,1.86Z"/>
        <path class="cls-1" d="M2.82,11.71c-.02-.07-.05-.24-.08-.52.14-1.11.72-1.67,1.75-1.67.78.15,1.15.5,1.15,1.04v.22c-.1.54-.35.8-.77.8h-.14c-.46-.07-.69-.25-.69-.57v-.19c0-.27.19-.45.57-.5h.06c.06.02.1.03.14.03-.05-.12-.19-.17-.43-.17-.54,0-.86.34-.96,1.02,0,.72.4,1.21,1.2,1.5.06.03.23.07.55.1.98,0,1.66-.54,2.03-1.6.03-.16.06-.34.06-.5l-.06-.42c0-.14.74-.57,2.21-1.31v-.23c0-.63.37-1.05,1.07-1.27l.43-.04c.32.02.66.12,1.02.28v-.05c-.15-.09-.3-.25-.43-.5v-.15c0-.21.13-.32.39-.32.1,0,.31.03.63.09-.15-.27-.23-.56-.23-.87v-.23c0-.23.11-.34.33-.34.24,0,.57.25,1.02.75v.03h.06c.15-.52.33-.79.54-.79.35.14.54.4.54.79h.05c.14-1.17.67-1.76,1.61-1.76.19,0,.45.09.78.27,1.21-.69,1.94-1.07,2.19-1.16.55.36,1.04.55,1.47.55h.24c.93,0,1.58-.54,1.94-1.63v-.23c0-.73-.4-1.22-1.22-1.5h-.24c-.59.12-.88.39-.88.84v.05c.19-.32.42-.47.69-.47.35,0,.57.23.64.7,0,.39-.27.63-.83.74h-.14c-.56,0-.89-.37-1.03-1.11v-.04c0-.56.41-.99,1.21-1.31.14-.03.26-.05.39-.05h.06c.9,0,1.57.56,2,1.65.03.25.05.46.05.6,0,.61-.32,1.22-.98,1.81-.54.4-1.09.6-1.65.6h-.35c-.4,0-.87-.15-1.39-.47-1.11.57-1.7.92-1.81,1.04v.32c0,.42-.32.67-.94.76-.42-.12-.63-.33-.63-.62,0-.22.11-.32.33-.32.24,0,.35.09.35.28h.05s.09-.05.15-.15v-.09c0-.23-.17-.37-.49-.42h-.06c-.48,0-.75.4-.82,1.2,0,.85-.4,1.43-1.21,1.73-.18,0-.37.13-.54.37-.35.2-.69.28-.98.28-.34,0-.89-.17-1.66-.51h-.3c-.49.07-.73.25-.73.57v.09c0,.16.08.28.24.36h.16c.06,0,.09-.02.09-.08l-.09-.15v-.13c0-.22.13-.33.39-.33.25.13.39.3.39.5v.19c0,.34-.27.56-.83.66h-.05c-.14,0-.37-.08-.69-.23-1.1.62-1.68.94-1.75.94v.23c0,1.26-.65,2.13-1.95,2.62-.4.09-.69.13-.88.13-1.12,0-1.89-.58-2.3-1.73Z"/>
        <path class="cls-1" d="M25.21,2.85c-.06-.21-.09-.39-.09-.57v-.19c0-.98.55-1.66,1.65-2.04.06-.03.15-.05.25-.05h.19c.77,0,1.29.42,1.55,1.22v.33c0,.44-.29.75-.87.97h-.25c-.55-.11-.82-.33-.82-.69v-.1c.06-.44.25-.66.58-.66h.1c.33,0,.51.19.53.57h.05v-.38c-.18-.4-.48-.61-.87-.61h-.09c-.64,0-1.09.46-1.31,1.37v.32c0,.61.45,1.15,1.35,1.6.24.05.43.08.59.08h.25c.42,0,.88-.19,1.41-.55h.1l2.14,1.16c.29-.19.56-.27.82-.27.69,0,1.18.4,1.47,1.2.03.32.08.47.14.47,0-.35.17-.57.49-.64h.15c.14,0,.27.24.4.73.5-.52.87-.79,1.11-.79s.34.12.34.37v.04c0,.33-.08.67-.24,1.03h.05c.25-.05.48-.09.69-.09.13.04.23.13.29.24v.08c0,.15-.15.38-.45.71.38-.19.74-.28,1.1-.28.82,0,1.31.44,1.45,1.31l-.06.17c1.22.67,1.93,1.07,2.15,1.22.03.05.05.11.05.19v.56c0,.89.56,1.51,1.67,1.86l.43.05c1.14-.15,1.7-.67,1.7-1.54v-.19c0-.49-.32-.79-.98-.89h-.03c-.29.07-.43.14-.43.23.1-.05.19-.09.27-.09.34,0,.54.21.61.61v.04c-.11.4-.32.6-.64.6h-.16c-.47,0-.77-.3-.87-.89,0-.67.42-1.06,1.26-1.17.88,0,1.44.48,1.67,1.45v.27c0,1.03-.62,1.74-1.86,2.14-.13,0-.3.02-.53.05-1.21,0-2.1-.62-2.67-1.87-.08-.28-.11-.52-.11-.7v-.32c-.1-.11-.72-.47-1.84-1.07-.15.17-.37.26-.63.26-.58-.1-.88-.35-.88-.73.07-.4.25-.61.53-.61.14.03.24.12.3.24v.09l-.1.33.1.03h.09c.19-.1.3-.25.3-.45-.1-.38-.38-.57-.82-.57-.09,0-.65.17-1.67.51h-.27c-.42,0-.83-.2-1.23-.6-.97-.19-1.45-.89-1.45-2.1-.13-.59-.42-.89-.88-.89-.27,0-.43.16-.49.5l.19.15h.06c0-.2.1-.28.33-.28h.1c.16.09.24.2.24.32,0,.34-.26.55-.79.62-.41,0-.7-.31-.82-.9l.06-.23c-1.18-.67-1.81-.99-1.91-.99-.4.32-.87.47-1.41.47h-.25c-1.14,0-1.99-.6-2.54-1.81Z"/>
        <path class="cls-1" d="M46.03,38.66c.05.15.06.32.06.47v.13c-.15,1.06-.72,1.58-1.7,1.58-.62,0-1.03-.35-1.22-1.03v-.24c.15-.52.45-.79.87-.79h.16c.42.11.64.31.64.61v.04c-.07.4-.26.6-.61.6-.08,0-.17-.02-.27-.08v.03c.17.13.32.2.43.2h.03c.66-.1.98-.39.98-.89v-.19c0-.87-.56-1.39-1.7-1.54-.96,0-1.63.49-2.05,1.49-.03.17-.06.32-.06.43v.55c0,.21-.24.39-.72.58-.01.03-.5.31-1.47.83l.06.24c-.15.84-.65,1.26-1.51,1.26-.31,0-.65-.1-1.04-.28v.05c.3.25.45.47.45.64v.09c-.08.15-.22.24-.39.24-.09,0-.31-.04-.63-.11.16.37.24.72.24,1.04v.04c0,.25-.11.38-.34.38-.24,0-.61-.27-1.11-.81,0,.39-.18.67-.55.81-.21,0-.37-.24-.49-.71-.03,0-.11.26-.24.79-.39.6-.82.9-1.31.9-.32,0-.62-.1-.88-.28l-2.14,1.17c-.09,0-.31-.11-.64-.34-.29-.15-.58-.23-.87-.23h-.25c-.9,0-1.54.51-1.94,1.54v.37c0,.67.39,1.16,1.15,1.45h.25c.58-.1.87-.35.87-.75v-.23h-.05c-.01.38-.19.57-.53.57h-.1c-.33,0-.53-.22-.58-.66v-.1c0-.36.27-.59.82-.7h.19c.42,0,.73.31.93.94v.36c-.26.82-.79,1.22-1.55,1.22h-.19c-.42-.03-.86-.25-1.31-.66-.39-.45-.58-.94-.58-1.45v-.19c0-1.01.67-1.78,2.03-2.33l.59-.03h.25c.45,0,.95.15,1.51.45,1.03-.54,1.62-.87,1.81-1.03l-.06-.23c0-.46.33-.74.98-.84.32,0,.53.22.63.66-.05.13-.13.23-.24.28h-.25c-.13-.07-.18-.16-.18-.28h-.06s-.11.07-.19.19c.07.32.24.47.49.47.64,0,.96-.58.96-1.73.31-.81.73-1.21,1.28-1.21.48-.39.85-.6,1.07-.6.03-.03.15-.04.33-.04.29,0,.85.16,1.7.51h.25c.49-.08.73-.3.73-.66,0-.12-.1-.25-.3-.38h-.09c-.07.01-.1.04-.1.1.07.1.1.2.1.28v.09c-.08.15-.21.23-.38.23-.3-.13-.45-.35-.45-.64.15-.46.43-.69.82-.69h.06c.26,0,.48.09.63.26,1.12-.6,1.74-.96,1.84-1.07v-.32c0-1.15.69-1.97,2.06-2.47l.73-.1c1.14,0,1.92.58,2.33,1.73Z"/>
        <path class="cls-1" d="M47.6,16.37v.05h.06c.32-.13.49-.34.49-.6v-.24c0-.54-.45-.86-1.31-.98h-.19c-.67,0-1.18.44-1.53,1.3-.06.15-.09.35-.09.61,0,.84.54,1.5,1.62,1.96l.03.34v2.13c.56.16.83.56.83,1.17s-.32,1.08-.98,1.44v.05c.3-.07.5-.1.64-.1.18,0,.31.11.38.33-.02.16-.17.39-.47.71.88.14,1.31.36,1.31.63v.05c-.31.4-.75.6-1.31.6.29.28.43.51.47.7-.06.22-.19.33-.43.33-.31-.02-.48-.05-.53-.09h-.06v.05c.66.35.98.83.98,1.44s-.27.99-.83,1.15v2.25c0,.23-.24.4-.72.56-.62.47-.94,1.06-.94,1.77s.4,1.27,1.18,1.68c.22.05.35.09.45.09h.19c.87-.12,1.31-.44,1.31-.97v-.24c0-.26-.17-.47-.49-.6h-.06v.04c.14,0,.24.16.3.47-.11.37-.33.56-.63.56-.42,0-.69-.22-.79-.66v-.28c.11-.52.49-.79,1.12-.79.82.15,1.22.61,1.22,1.35v.24c0,.7-.57,1.21-1.71,1.52h-.43c-1.05,0-1.81-.61-2.25-1.86-.06-.26-.08-.48-.08-.66,0-1.01.55-1.82,1.65-2.46v-1.97c-.45-.15-.66-.39-.66-.7v-.27c0-.36.25-.56.77-.6.26.02.39.14.39.37,0,.19-.11.28-.33.28h-.16v.19c.03.09.14.13.3.13.37-.04.55-.22.55-.52v-.08c0-.4-.41-.84-1.23-1.31-.35-.4-.53-.81-.53-1.21,0-.14.05-.33.14-.57-.09-.2-.14-.42-.14-.63,0-.59.48-1.19,1.45-1.78.21-.22.31-.44.31-.66v-.1c-.07-.34-.24-.5-.55-.5-.19.02-.3.07-.3.13v.19h.16c.22,0,.33.11.33.34,0,.21-.18.32-.53.32-.42-.1-.63-.31-.63-.6v-.28c0-.31.22-.54.66-.69v-1.97c-1.1-.62-1.65-1.46-1.65-2.51s.56-1.87,1.69-2.38c.3-.07.5-.1.64-.1h.16c1.02,0,1.68.48,1.99,1.45v.33c0,.74-.4,1.2-1.22,1.35-.63,0-1.01-.27-1.12-.81v-.26c.1-.44.37-.66.79-.66.3,0,.51.19.63.55-.06.32-.16.47-.3.47Z"/>
      </g>
      <g>
        <path class="cls-1" d="M9.98,25.64s-.03.04-.03.05c-.05.32-.11.64-.11.96,0,.56-.01,1.13,0,1.69,0,.53.13,1.05.3,1.56.08.23.19.45.34.65.15.2.34.36.59.44.23.07.47.09.71.04.16-.03.29-.11.41-.21.16-.14.31-.29.42-.47.12-.2.24-.4.34-.61.23-.47.45-.94.68-1.41.17-.35.32-.72.53-1.06.39-.65.86-1.25,1.47-1.73.12-.09.25-.18.38-.26.18-.11.37-.16.58-.18.17-.02.33.02.47.12.26.19.48.42.66.68.17.25.33.51.47.77.12.23.29.43.43.63.1.14.24.26.39.35.24.15.48.31.77.38.05.01.09.03.13.06.16.1.34.11.51.15.05.01.1,0,.13-.04.07-.08.14-.16.21-.24.15-.19.3-.39.46-.58.44-.52.95-.98,1.47-1.42.33-.21.63-.46.96-.67.35-.22.72-.41,1.08-.63.06-.04.13-.06.19-.09.04-.02.06-.07.06-.12,0-.04-.05-.09-.09-.09-.07,0-.14-.01-.22-.01-1.13-.02-2.27-.03-3.4-.05-.6,0-1.21-.02-1.81-.02-.08,0-.17,0-.25-.02-.06,0-.11-.04-.16-.06-.09-.05-.13-.15-.1-.24.12-.29.16-.6.27-.89.06-.15.14-.3.22-.43.07-.12.18-.22.31-.28.17-.09.33-.19.51-.26.46-.2.91-.43,1.33-.69.33-.21.67-.41.98-.65.13-.1.26-.2.39-.3.33-.26.62-.54.92-.83.09-.09.18-.19.26-.29.3-.37.59-.76.85-1.16.3-.45.59-.9.89-1.34.18-.26.38-.5.59-.74.11-.12.24-.22.38-.31.13-.08.35-.08.48,0,.1.07.19.14.26.24.16.24.29.46.37.74.16.52.09,1.08.09,1.62,0,.19-.03.37-.09.54-.04.13-.07.27-.1.4-.02.08-.15.1-.21.04-.02-.03-.05-.05-.06-.08-.02-.04-.03-.09-.03-.13,0-.1-.02-.21-.01-.31.02-.3-.07-.57-.2-.83-.07-.15-.16-.28-.28-.4-.07-.07-.15-.12-.24-.15-.08-.03-.16-.04-.25,0-.11.04-.21.1-.3.18-.17.15-.31.33-.43.51-.19.29-.37.59-.55.89-.26.43-.49.87-.79,1.27-.14.3-.37.54-.56.81-.07.11-.16.2-.25.29-.32.33-.65.65-.99.95-.03.03-.06.07-.09.11-.04.06,0,.16.07.16.1.01.19.02.29.02.63.01,1.25.03,1.88.03.69,0,1.37.01,2.06.02.31,0,.63.02.94.02.84.02,1.69.03,2.53-.03.14,0,.29,0,.43,0,.08,0,.15.1.14.17-.02.16-.04.32-.12.47-.03.06-.07.13-.08.19-.03.21-.15.39-.21.59-.03.08-.09.14-.18.16-.23.07-.44.19-.69.19-.25.09-.51.13-.76.2-.16.05-.32.11-.49.12-.06,0-.12.02-.17.04-.15.06-.29.1-.45.11-.02,0-.05,0-.07.01-.23.11-.48.13-.72.22-.08.03-.16.06-.24.08-.09.02-.18.05-.27.09-.06.03-.13.05-.2.06-.1.02-.18.05-.27.1-.16.09-.35.09-.5.2-.14.03-.27.1-.4.16-.36.16-.93.43-1.21.61-.08.05-.17.08-.25.13-.33.21-.68.4-.99.63-.34.24-.65.52-.96.78-.08.07-.15.15-.22.23-.02.03-.03.06-.05.09-.02.05.02.12.08.13.06,0,.12.02.18.02.25.03.5.05.76.07.34.04.67.07,1.01.08.74,0,1.47.01,2.21.02.52,0,1.04,0,1.56.01.39,0,.77.04,1.15.09.21.03.43.05.65.06.24.01.48.04.71.11.05.01.09.03.14.04.51.11.93.37,1.29.73.3.31.52.66.64,1.07.05.18.11.35.14.54.08.44.06.87,0,1.31-.03.18-.07.36-.1.55-.08.48-.26.93-.48,1.37-.29.59-.67,1.12-1.11,1.61-.51.57-1.08,1.08-1.73,1.52-.44.3-.9.57-1.42.75-.23.13-.5.15-.74.27-.04.02-.09.03-.14.03-.17.02-.33.06-.49.11-.1.03-.21.04-.32.05-.23.02-.46.03-.69.04-.3.02-.6.02-.9,0-.14-.01-.29-.02-.43-.03-.23,0-.46-.03-.67-.11-.04-.02-.09-.03-.14-.04-.21-.01-.39-.09-.59-.16-.55-.19-1.03-.5-1.44-.9-.25-.24-.44-.51-.62-.81-.3-.52-.49-1.07-.6-1.66-.17-.9-.17-1.81-.1-2.72,0-.07.02-.14.02-.21.03-.71.19-1.39.4-2.07.03-.1.06-.2.08-.3.04-.16,0-.21-.14-.26-.11-.04-.22-.08-.34-.13-.49-.19-.89-.5-1.22-.89-.2-.25-.37-.51-.53-.78-.12-.2-.24-.4-.37-.59-.12-.17-.27-.32-.45-.44-.08-.06-.17-.08-.27-.08-.06,0-.12,0-.18.02-.35.13-.68.29-.95.54-.58.54-.99,1.18-1.3,1.89-.25.56-.48,1.13-.76,1.68-.13.26-.26.52-.44.76-.06.07-.11.16-.17.22-.11.11-.21.22-.33.32-.5.4-1.18.28-1.56-.03-.12-.1-.22-.21-.32-.33-.22-.26-.38-.56-.52-.87-.25-.55-.42-1.13-.51-1.73-.02-.15-.03-.3-.03-.45-.02-.54-.02-1.08.03-1.63.04-.49.09-.99.26-1.46.02-.04.03-.09.03-.14,0-.03-.02-.07-.03-.1,0,0-.01-.02-.02-.03-.24-.2-.29-.47-.32-.75-.03-.35.02-.69.1-1.03.15-.63.39-1.24.66-1.83.05-.11.14-.22.21-.32,0,0,.03,0,.03,0,.01.02.03.04.02.06-.11.4-.23.8-.34,1.2-.05.17-.09.34-.13.5-.08.32-.09.64-.05.96,0,.08.04.16.07.23.02.04.05.08.08.11.13.12.27.13.43.04.14-.08.24-.19.33-.31.07-.1.14-.19.21-.28.01-.01.04-.01.07-.01,0,0,.02.02.02.03-.08.36-.16.72-.32,1.06-.04.07-.07.15-.12.21-.1.15-.24.26-.43.3-.06.01-.12.03-.19.04ZM19.84,33.08c0,.12,0,.21,0,.31,0,.64.15,1.26.43,1.84.21.45.53.82.93,1.13.5.38,1.08.61,1.7.73.58.12,1.17.17,1.76.17.62,0,1.22-.1,1.82-.25.37-.1.73-.23,1.08-.38.81-.34,1.56-.78,2.24-1.32.47-.38.89-.81,1.25-1.29.14-.19.26-.39.36-.6.07-.15.13-.3.15-.46.04-.39-.02-.76-.21-1.1-.15-.28-.35-.52-.59-.74-.37-.33-.82-.53-1.31-.63-.45-.09-.9-.15-1.36-.17-.76-.03-1.52-.07-2.28-.09-.57-.02-1.13-.02-1.7-.03-.83-.02-1.66-.04-2.49-.17-.25-.04-.5-.07-.75-.1-.05,0-.1-.01-.14-.02-.08,0-.14.03-.18.1-.05.08-.08.17-.12.25-.26.64-.42,1.3-.54,1.97-.05.3-.05.6-.05.87Z"/>
        <path class="cls-1" d="M39.48,25.52c-.01.22-.03.5-.05.77,0,.06-.02.11-.04.17-.05.14-.09.29-.15.43-.07.16-.16.31-.25.46-.52.86-1.39,1.5-2.32,1.91-.35.16-.72.28-1.09.36-.39.07-.78.13-1.18.15-.39.02-.77-.05-1.14-.14-.9-.22-1.39-1.28-1.47-2.09-.01-.13-.04-.25-.06-.38-.05-.24-.08-.48-.09-.72,0-.15,0-.3,0-.45,0-.48-.03-.97-.08-1.45-.06-.63-.08-1.27-.08-1.9,0-.81,0-1.61-.06-2.42-.03-.45-.07-.9-.09-1.35-.02-.41-.03-.83-.03-1.24,0-.48-.03-.97-.12-1.45-.1-.53-.14-1.07-.23-1.6-.08-.48-.22-.92-.34-1.38-.02-.09-.09-.16-.17-.21-.03-.02-.1-.03-.14,0-.04.03-.08.05-.11.09-.07.09-.16.18-.19.29-.07.18-.18.35-.24.54-.04.14-.12.27-.19.41-.01.03-.04.03-.06.01-.02-.01-.04-.03-.05-.05-.06-.45.08-.91.22-1.34.1-.31.23-.61.38-.9s.28-.54.63-.61c.03,0,.07,0,.11.02.13.04.24.11.31.23.08.13.18.25.21.4,0,.06.04.11.06.16,0,.01.01.02.02.03.02.05.06.11.07.16,0,.29.16.6.22.89.07.39.13.78.19,1.18.16,1.12.29,2.27.29,3.4,0,.89.02,1.78.08,2.66.08,1.15.09,2.3.1,3.46,0,.67.04,1.34.12,2,.02.13.03.25.04.38,0,.16.03.32.11.47.02.04.03.09.04.13.07.3.25.55.47.76.06.06.13.1.2.15.32.18.77.16,1.13.15.43-.01.85-.07,1.26-.16,1.03-.23,2.15-.64,2.98-1.29.15-.12.25-.24.25-.44,0-.23-.1-.44-.14-.66-.05-.34-.24-.62-.39-.92-.37-.55-.81-1.03-1.43-1.33-.05-.03-.11-.05-.17-.07-.07-.02-.14-.03-.21-.06-.19-.1-.39-.1-.6-.1-.12,0-.24.02-.35.08-.06.04-.13.06-.2.09-.1.05-.17.12-.24.21-.08.11-.08.3.01.43.07.1.17.17.3.17.33,0,.65.02.97-.08.08-.03.16-.04.25-.05.15-.02.28,0,.42.07.17.09.32.2.45.34.18.19.3.42.43.64.05.09.09.19.15.27.05.07.06.15.05.23,0,.06-.07.11-.12.09-.12-.04-.25-.08-.37-.13-.11-.05-.23-.07-.35-.07-.18,0-.36.02-.54.07-.17.05-.35.08-.53.09-.13,0-.26.02-.39.05-.31.06-.6-.02-.89-.08-.1-.06-.21-.11-.3-.19-.2-.17-.37-.37-.42-.63-.01-.06-.03-.11-.05-.17-.09-.25-.09-.5-.03-.75.04-.16.06-.32.11-.47.05-.15.1-.31.18-.45.2-.36.43-.69.74-.97.17-.15.36-.26.57-.36.04-.02.09-.03.14-.04.28-.01.56-.04.82.09.02.01.04.02.07.02.38.09.7.31.99.55,1.1.92,1.54,2.11,1.61,3.46Z"/>
        <path class="cls-1" d="M12.7,22.07c.43.27.84.53,1.25.79.07.04.14.09.21.13.04.02.11.01.13-.02.04-.05.07-.09.11-.14.2-.3.39-.61.59-.91.03-.04.05-.08.08-.11.03-.03.09-.04.13-.02.01,0,.02,0,.03.02.44.24.87.49,1.31.73.02.01.04.03.05.04.04.03.07.12.04.16-.04.08-.09.16-.14.24-.22.32-.44.63-.65.95-.08.12-.09.12-.23.05-.23-.13-.45-.26-.68-.39-.21-.12-.41-.24-.61-.36-.13-.07-.16-.07-.23.05-.14.22-.28.43-.41.65-.09.14-.17.28-.26.42-.04.06-.16.09-.23.05-.43-.26-.86-.52-1.28-.77-.04-.02-.08-.06-.11-.09-.06-.05-.07-.12-.03-.18.22-.32.44-.63.65-.95.07-.11.14-.22.26-.31Z"/>
        <path class="cls-1" d="M24.37,12.35s.06,0,.08.01c.11.06.23.13.34.19.25.16.5.32.75.48.09.06.19.1.28.15.06.03.15,0,.19-.06.07-.1.13-.19.19-.29.17-.25.34-.5.51-.75.04-.06.12-.08.19-.05.09.04.17.08.26.13.26.15.51.3.76.46.05.03.1.06.15.09.23.16.25.21.1.44-.17.25-.34.5-.51.75-.05.08-.1.16-.16.23-.04.06-.16.09-.23.05-.09-.05-.19-.11-.28-.16-.3-.18-.59-.35-.89-.53-.03-.02-.06-.03-.1-.05-.1-.04-.23,0-.29.08-.19.29-.37.59-.56.88-.01.02-.02.04-.04.06-.07.09-.2.15-.32.09-.12-.06-.23-.12-.34-.19-.25-.15-.49-.29-.73-.44-.09-.06-.17-.12-.26-.19-.04-.03-.05-.08-.03-.13.05-.09.09-.19.15-.27.19-.28.38-.56.57-.84.03-.04.06-.07.1-.1.03-.02.06-.03.09-.04Z"/>
        <path class="cls-1" d="M18.2,16.75c.04-.13.06-.27.15-.39.08-.11.1-.23.11-.36.01-.13.06-.25.13-.35.06-.09.19-.13.29-.07.15.09.3.19.44.3.34.28.63.6.84.98.16.27.16.55.09.84-.03.12-.11.23-.21.32-.09.09-.21.12-.33.08-.17-.06-.34-.12-.5-.2-.22-.11-.26-.07-.4.07-.04.04-.08.09-.12.13-.37.44-.81.79-1.31,1.08-.93.56-1.91,1.02-2.94,1.39-.53.19-1.06.38-1.6.53-.03,0-.07.02-.11.02-.02,0-.04-.01-.06-.03,0,0,0-.02.01-.03.11-.06.23-.13.34-.19.88-.43,1.76-.85,2.64-1.28.7-.34,1.38-.72,2.02-1.14.12-.08.23-.16.35-.24.12-.08.23-.16.35-.24.09-.06.17-.13.24-.21.02-.02.02-.08,0-.09-.09-.06-.17-.13-.27-.18-.09-.05-.15-.11-.21-.19-.04-.06-.07-.12-.07-.19,0-.08,0-.16.01-.24,0-.06.05-.1.1-.14.08,0,.13.06.17.11.14.16.33.25.54.32.07.03.15-.02.16-.09.03-.14.02-.27,0-.41-.02-.17-.25-.27-.38-.23-.12.04-.24.09-.33.19-.04.05-.12.07-.18.11ZM20.04,17.55s0-.05,0-.07c-.06-.19-.17-.35-.3-.5-.26-.32-.24-.27-.43.05-.09.15-.04.29.11.38.04.02.08.04.13.06.11.04.22.08.34.12.03.01.07,0,.1,0,.02,0,.03-.03.05-.04Z"/>
        <path class="cls-1" d="M22.49,12.83s0,.05-.01.06c-.12.16-.26.3-.41.44-.14.12-.29.2-.47.25-.63.2-1.25.43-1.87.65-.84.31-1.68.64-2.5.99-.43.19-.86.36-1.28.57-.11.05-.22.08-.34.12-.04.01-.09-.05-.08-.09,0-.01,0-.02,0-.03.08-.14.16-.28.25-.42.1-.14.24-.23.39-.3.58-.28,1.16-.55,1.75-.81.31-.13.62-.25.94-.36.55-.2,1.1-.41,1.66-.59.55-.18,1.1-.35,1.66-.48.08-.02.16-.03.25-.04.01,0,.03.03.05.04Z"/>
        <path class="cls-1" d="M12.82,18.02c-.17,0-.34.02-.5.06-.06.02-.12.02-.18.02-.05,0-.09-.05-.08-.09.04-.1.07-.2.13-.28.1-.16.22-.3.33-.45.03-.04.09-.08.15-.1.25-.09.51-.14.78-.13.35.01.7.06,1.04.13.02,0,.05.01.07.02.05.02.09.08.1.14,0,.07,0,.14-.05.2-.06.1-.13.2-.2.29-.24.29-.48.58-.76.83-.05.05-.1.1-.16.14-.11.08-.22.14-.36.16-.37.06-.74.11-1.11.16-.05,0-.1,0-.14-.01-.02,0-.04-.03-.05-.05,0-.02,0-.05.02-.06.1-.06.21-.12.32-.16.31-.1.58-.27.89-.38.12-.05.23-.12.34-.18.05-.03.04-.12-.01-.15-.04-.02-.09-.05-.13-.05-.14-.02-.29-.03-.43-.04Z"/>
        <path class="cls-1" d="M36.13,20.32c-.2-.08-.38-.2-.56-.31-.14-.09-.28-.18-.42-.27-.08-.05-.16-.11-.23-.17-.06-.05-.07-.12-.05-.19,0-.03.02-.07.04-.1.16-.27.34-.53.49-.8.03-.06.09-.1.15-.15.04-.03.09-.04.14-.01.09.05.19.1.28.16.22.14.43.29.65.44.05.03.1.06.15.1.12.11.2.17.05.38-.16.22-.29.45-.43.68-.08.13-.08.13-.25.24Z"/>
        <path class="cls-1" d="M34.37,15.1c0-.17,0-.34-.02-.51-.1-.81-.51-1.54-1.08-2.13,0,0-.02-.01-.03-.02-.26-.24-.27-.26-.24-.61,0-.09.03-.18.05-.27.02-.09.16-.13.24-.07.02.01.04.03.06.04.73.82,1.36,1.71,1.45,2.81.02.25-.07.48-.07.72,0,.26-.13.49-.23.72,0,.02-.04.03-.06.03-.02,0-.05-.02-.05-.03-.01-.03-.02-.07-.02-.1,0-.2,0-.39,0-.59Z"/>
        <path class="cls-1" d="M37.83,15.93s0,.06,0,.07c-.06.1-.14.19-.2.29-.2.29-.5.35-.82.47-.67.25-1.32.53-1.97.8-.39.17-.78.35-1.17.53-.03.01-.07,0-.11.01-.03,0-.08-.04-.07-.06.01-.06.02-.12.04-.16.05-.09.11-.18.18-.26.03-.04.07-.07.1-.09.54-.34,1.19-.58,1.78-.83.7-.29,1.46-.44,2.14-.78.02-.01.07,0,.1.01Z"/>
        <path class="cls-1" d="M15.84,29.98c.11-.23.33-.37.51-.53.12-.11.26-.16.41-.21.11-.03.21-.03.32.02.04.02.08.04.13.07.1.06.15.14.18.25.04.18.03.37-.04.54-.07.16-.15.31-.25.46-.18.23-.38.45-.59.65-.38.36-.79.67-1.22.98-.04.03-.08.05-.12.07-.04.02-.08.05-.13.03-.03-.01-.02-.06.04-.11.09-.09.19-.18.28-.27.21-.2.43-.4.64-.61.19-.18.35-.38.51-.58.06-.08.12-.17.16-.27.04-.08.06-.18.06-.27.02-.21-.15-.36-.36-.32-.11.02-.21.05-.31.08-.07.02-.14.03-.21,0h0Z"/>
        <path class="cls-1" d="M26.5,27.79s-.02,0-.03-.02c0,0-.01-.02,0-.03.04-.08.06-.17.12-.25.09-.13.18-.27.36-.32.27-.15.57-.25.83-.41.19-.03.34-.16.53-.21.16-.04.3-.15.46-.18.19-.13.43-.15.63-.25.16-.07.34-.11.5-.18.07-.03.16-.02.25-.03.04,0,.09.07.07.1-.17.26-.4.45-.71.55-.25.08-.49.17-.74.27-.2.08-.38.19-.6.24-.17.11-.38.14-.55.25-.11.07-.24.11-.36.16-.23.09-.45.22-.69.3-.02,0-.05.01-.07.02Z"/>
        <path class="cls-1" d="M22.08,17.75c.04-.27.05-.51.16-.74.04-.08.07-.17.11-.25,0-.01.04-.03.06-.02.02,0,.04.03.04.05,0,.11-.03.23-.03.34,0,.09,0,.18,0,.27,0,.05.04.11.06.16.04.07.13.12.21.1.06,0,.12-.03.17-.04.07-.02.14.05.12.13-.01.06-.02.12-.06.16-.08.11-.19.21-.32.28-.17.09-.41.01-.47-.17-.03-.1-.04-.2-.06-.27Z"/>
        <path class="cls-1" d="M29.15,20.32s0-.05.01-.1c.04-.18.09-.36.13-.54,0-.01,0-.02.02-.03.02-.01.04-.03.06-.03.02,0,.05.02.05.04.01.07.02.14.02.2,0,.06,0,.11,0,.17,0,.11.06.19.14.26.08.06.13.07.23.02.05-.03.1-.06.16-.09.02,0,.05,0,.07,0,.03,0,.04.07.03.09-.03.06-.07.12-.1.18-.05.14-.16.22-.28.3-.14.09-.31.06-.41-.08-.08-.12-.14-.24-.13-.42Z"/>
        <polygon class="cls-1" points="15.83 29.98 15.85 30 15.84 29.98 15.83 29.98"/>
        <path class="cls-1" d="M29.47,32.7s-.05.11-.09.15c-.14.14-.28.28-.44.41-.56.46-1.19.82-1.87,1.1-.6.24-1.22.42-1.87.52-.41.06-.82.07-1.22-.03-.1-.03-.2-.07-.3-.11-.09-.04-.16-.1-.23-.17-.22-.21-.19-.53-.06-.7.06-.08.13-.16.21-.24.17-.16.37-.29.58-.41.1-.06.21-.12.31-.18.02-.01.02-.04.03-.06,0-.02-.04-.06-.08-.06-.01,0-.02,0-.04,0-.26-.03-.5.01-.74.12,0,0-.02,0-.03,0-.03,0-.04-.03-.03-.06,0-.01,0-.02,0-.03.05-.13.13-.24.24-.34.13-.12.27-.18.45-.18.18,0,.36,0,.53.08.18.07.25.22.19.39-.04.1-.1.19-.19.25-.13.09-.26.17-.39.25-.15.09-.31.18-.46.27-.1.06-.19.14-.27.23-.05.07-.04.17.02.22.04.04.09.08.14.1.28.15.59.2.9.22.33.02.65-.02.97-.08.93-.18,1.81-.49,2.62-.95.24-.13.47-.29.68-.45.1-.08.21-.15.32-.23.02-.02.07,0,.1,0,0,0,0,0,0,0Z"/>
        <path class="cls-1" d="M29.48,32.71s0-.04,0-.05c0,0,.02,0,.03,0-.01.01-.02.03-.03.04,0,0,0,0,0,0Z"/>
      </g>
    </g>
    <g>
      <path class="cls-1" d="M58.16,18.8h5.41v1.57h-7.43V5.59h2.02v13.21Z"/>
      <path class="cls-1" d="M76.1,15.28h-9.71c.07,1.14.48,2.04,1.23,2.68.75.64,1.65.96,2.72.96.87,0,1.6-.19,2.18-.58.58-.39.99-.91,1.23-1.56h2.17c-.33,1.12-.98,2.03-1.95,2.72s-2.19,1.05-3.64,1.05c-1.15,0-2.18-.25-3.09-.74-.91-.5-1.62-1.2-2.14-2.11-.52-.91-.78-1.97-.78-3.17s.25-2.25.75-3.16c.5-.9,1.21-1.6,2.12-2.09s1.95-.73,3.14-.73,2.17.24,3.06.72c.89.48,1.57,1.14,2.05,1.98s.72,1.79.72,2.85c0,.37-.02.76-.07,1.17ZM73.57,11.81c-.34-.53-.8-.93-1.39-1.21-.58-.28-1.23-.41-1.94-.41-1.02,0-1.89.31-2.61.93-.72.62-1.13,1.48-1.23,2.59h7.67c0-.73-.17-1.37-.51-1.9Z"/>
      <path class="cls-1" d="M78.18,11.39c.5-.9,1.19-1.59,2.07-2.09.88-.5,1.86-.74,2.94-.74s1.99.22,2.77.66c.78.44,1.37.99,1.75,1.65v-2.12h2.04v11.62h-2.04v-2.16c-.4.68-.99,1.24-1.78,1.69-.79.44-1.71.67-2.76.67s-2.06-.25-2.93-.76c-.87-.51-1.56-1.22-2.06-2.14-.5-.92-.75-1.96-.75-3.14s.25-2.23.75-3.13ZM87.16,12.24c-.37-.65-.87-1.15-1.5-1.49-.63-.35-1.32-.52-2.07-.52s-1.44.17-2.06.51c-.62.34-1.12.83-1.49,1.48-.37.65-.55,1.41-.55,2.29s.18,1.66.55,2.32.87,1.16,1.49,1.5c.62.35,1.31.52,2.06.52s1.44-.17,2.07-.52c.63-.35,1.13-.85,1.5-1.5.37-.66.55-1.42.55-2.3s-.19-1.64-.55-2.29Z"/>
      <path class="cls-1" d="M96.06,9.09c.66-.37,1.46-.55,2.41-.55v1.99h-.53c-2.26,0-3.39,1.17-3.39,3.52v6.32h-2.02v-11.62h2.02v1.89c.35-.66.86-1.18,1.52-1.55Z"/>
      <path class="cls-1" d="M109.67,9.82c.92.85,1.37,2.09,1.37,3.7v6.85h-2v-6.57c0-1.16-.3-2.05-.91-2.66-.61-.61-1.43-.92-2.48-.92s-1.91.32-2.54.95-.94,1.56-.94,2.78v6.42h-2.02v-11.62h2.02v1.65c.4-.59.94-1.05,1.63-1.38s1.44-.49,2.27-.49c1.48,0,2.68.43,3.59,1.28Z"/>
    </g>
    <g>
      <path class="cls-1" d="M66.7,26.08v1.84h-7.9v5.85h6.41v1.84h-6.41v7.82h-2.37v-17.36h10.27Z"/>
      <path class="cls-1" d="M68.29,32.89c.59-1.05,1.4-1.87,2.44-2.45s2.18-.87,3.45-.87,2.34.26,3.26.77,1.61,1.16,2.06,1.94v-2.49h2.4v13.65h-2.4v-2.54c-.47.8-1.17,1.46-2.1,1.98s-2.01.79-3.24.79-2.42-.3-3.44-.9c-1.03-.6-1.83-1.44-2.42-2.52-.59-1.08-.89-2.31-.89-3.69s.29-2.62.89-3.67ZM78.85,33.9c-.43-.76-1.02-1.35-1.76-1.76-.74-.41-1.55-.61-2.44-.61s-1.69.2-2.42.6c-.73.4-1.31.98-1.75,1.74s-.65,1.66-.65,2.69.22,1.96.65,2.73,1.02,1.36,1.75,1.77c.73.41,1.54.61,2.42.61s1.7-.2,2.44-.61c.74-.41,1.32-1,1.76-1.77.43-.77.65-1.67.65-2.7s-.22-1.93-.65-2.69Z"/>
      <path class="cls-1" d="M87.52,31.66v8.05c0,.66.15,1.13.44,1.41s.81.41,1.54.41h1.75v1.92h-2.14c-1.32,0-2.31-.29-2.97-.87-.66-.58-.99-1.54-.99-2.86v-8.05h-1.85v-1.87h1.85v-3.44h2.37v3.44h3.73v1.87h-3.73Z"/>
      <path class="cls-1" d="M92.92,27.13c-.31-.3-.47-.66-.47-1.1s.16-.8.47-1.1.69-.45,1.15-.45.8.15,1.11.45c.3.3.46.66.46,1.1s-.15.8-.46,1.1c-.3.3-.67.45-1.11.45s-.83-.15-1.15-.45ZM95.21,29.79v13.65h-2.37v-13.65h2.37Z"/>
      <path class="cls-1" d="M107.98,30.2c.87.44,1.55,1.1,2.05,1.98.5.88.74,1.95.74,3.21v8.05h-2.34v-7.72c0-1.36-.36-2.4-1.07-3.13-.71-.72-1.69-1.08-2.92-1.08s-2.25.37-2.98,1.12c-.74.75-1.11,1.83-1.11,3.26v7.55h-2.37v-18.43h2.37v6.73c.47-.7,1.12-1.24,1.94-1.62.82-.38,1.75-.57,2.77-.57,1.08,0,2.05.22,2.92.66Z"/>
      <path class="cls-1" d="M113.37,32.89c.59-1.05,1.4-1.87,2.44-2.45s2.18-.87,3.45-.87,2.34.26,3.26.77,1.61,1.16,2.06,1.94v-2.49h2.4v13.65h-2.4v-2.54c-.47.8-1.17,1.46-2.1,1.98s-2.01.79-3.24.79-2.42-.3-3.44-.9c-1.03-.6-1.83-1.44-2.42-2.52-.59-1.08-.89-2.31-.89-3.69s.29-2.62.89-3.67ZM123.92,33.9c-.43-.76-1.02-1.35-1.76-1.76-.74-.41-1.55-.61-2.44-.61s-1.69.2-2.42.6c-.73.4-1.31.98-1.75,1.74s-.65,1.66-.65,2.69.22,1.96.65,2.73,1.02,1.36,1.75,1.77c.73.41,1.54.61,2.42.61s1.7-.2,2.44-.61c.74-.41,1.32-1,1.76-1.77.43-.77.65-1.67.65-2.7s-.22-1.93-.65-2.69Z"/>
    </g>
  </g>
</svg>